<?xml version="1.0" standalone="no"?>
<!DOCTYPE svg PUBLIC "-//W3C//DTD SVG 20010904//EN"
 "http://www.w3.org/TR/2001/REC-SVG-20010904/DTD/svg10.dtd">
<svg version="1.0" xmlns="http://www.w3.org/2000/svg"
 width="500.000000pt" height="500.000000pt" viewBox="0 0 500.000000 500.000000"
 preserveAspectRatio="xMidYMid meet">
<metadata>
Created by potrace 1.14, written by Peter Selinger 2001-2017
</metadata>
<g transform="translate(0.000000,500.000000) scale(0.100000,-0.100000)"
fill="#000000" stroke="none">
<path d="M2350 4679 c-469 -36 -914 -212 -1279 -508 -123 -100 -324 -308 -317
-328 3 -8 6 -20 6 -26 0 -7 14 13 31 43 79 140 366 382 625 528 87 48 284 138
287 130 1 -1 12 -22 25 -45 21 -40 21 -43 4 -43 -35 0 -44 -22 -20 -47 20 -21
20 -24 5 -41 -42 -46 -5 -126 56 -120 28 3 34 -1 52 -36 28 -56 51 -67 75 -38
10 12 20 27 22 33 2 7 12 7 29 1 37 -14 52 -1 47 39 -3 19 -8 41 -12 50 -6 13
0 16 33 16 22 0 47 6 56 13 20 16 19 47 -1 58 -25 14 78 24 210 21 96 -3 115
-6 141 -25 37 -27 138 -74 159 -74 21 0 20 -4 -10 -50 -17 -26 -25 -48 -22
-65 l5 -25 -100 0 c-265 0 -608 -101 -852 -252 -322 -200 -586 -518 -715 -861
l-10 -29 -35 31 c-20 17 -42 31 -50 31 -8 0 -15 4 -15 9 0 12 26 32 33 25 9
-9 21 45 20 90 0 28 -7 45 -21 57 -12 9 -18 19 -15 23 14 13 -14 5 -45 -14
-18 -11 -45 -40 -60 -64 l-28 -44 -22 42 c-12 22 -22 50 -22 61 0 15 -2 17 -9
6 -7 -11 -15 -11 -41 -2 -48 16 -63 0 -58 -63 2 -28 6 -57 9 -65 3 -10 -15
-18 -71 -28 -41 -8 -81 -20 -89 -26 -12 -10 -13 -7 -7 18 30 119 140 365 230
510 l56 90 0 -45 c0 -72 10 -76 60 -25 51 52 48 60 -5 14 l-36 -32 3 64 3 64
58 28 c32 15 62 25 68 22 15 -10 10 -38 -10 -69 -29 -43 -38 -144 -17 -185 14
-27 20 -30 36 -21 11 6 33 29 48 52 22 34 27 54 29 111 1 38 4 71 6 74 3 2 31
6 64 7 71 4 118 23 162 67 33 33 56 77 46 87 -16 16 -105 12 -164 -8 -35 -11
-65 -19 -67 -17 -10 10 80 107 133 144 109 76 236 128 288 118 20 -4 25 -3 17
3 -11 7 -10 10 3 16 25 9 55 7 55 -4 0 -5 -8 -10 -19 -10 -20 0 -61 -84 -61
-126 0 -53 75 -4 115 74 12 25 21 32 33 26 89 -37 213 -57 226 -36 9 15 -78
78 -126 94 -21 6 -38 12 -38 12 0 1 9 19 19 40 34 66 10 84 -54 40 l-38 -25
-31 30 c-41 39 -106 65 -106 42 0 -5 13 -12 28 -16 16 -3 45 -20 66 -37 l38
-31 -28 -12 c-33 -14 -55 -1 -81 48 -8 16 -17 26 -20 23 -3 -3 2 -17 11 -30 9
-14 16 -27 16 -29 0 -3 -23 -7 -51 -9 -29 -3 -58 -12 -67 -22 -16 -17 -15 -17
20 -3 64 27 138 22 138 -8 0 -15 -77 -27 -122 -19 -32 6 -32 6 -13 -9 19 -16
19 -16 1 -17 -30 0 -197 -86 -246 -127 -26 -21 -59 -54 -75 -75 -17 -20 -33
-37 -36 -38 -4 0 -12 14 -19 30 -7 17 -16 30 -21 30 -13 0 -11 -12 6 -34 8
-11 15 -27 15 -35 -1 -27 -37 -61 -64 -61 -14 0 -29 -7 -34 -16 -5 -10 -30
-25 -56 -34 -47 -19 -50 -14 -13 27 11 13 18 25 15 28 -5 5 -112 -123 -113
-135 0 -3 -18 -32 -39 -65 -57 -88 -139 -246 -184 -355 -48 -115 -105 -295
-99 -313 2 -6 7 4 12 23 4 19 12 40 17 47 16 20 99 43 184 51 l81 8 0 -26 c-1
-14 1 -31 4 -39 3 -10 -16 -22 -61 -38 -54 -20 -78 -23 -140 -19 -61 4 -71 2
-55 -7 24 -14 140 -13 178 2 l27 11 -15 -36 c-20 -49 -19 -71 9 -157 l24 -73
-69 -205 c-71 -213 -89 -292 -89 -396 l0 -62 -35 20 c-22 14 -47 19 -72 17
-37 -3 -38 -2 -46 42 -5 25 -9 149 -10 275 0 198 3 248 23 360 33 189 33 191
26 184 -10 -10 -43 -193 -56 -318 -18 -160 -7 -427 24 -604 13 -76 27 -141 31
-145 8 -7 4 24 -11 98 l-7 35 32 -30 c31 -28 32 -33 26 -79 -8 -60 -16 -76
-26 -50 -19 48 -6 -19 20 -106 150 -494 484 -942 915 -1224 103 -68 262 -156
346 -191 85 -36 290 -105 310 -105 8 1 -37 18 -100 39 -169 57 -318 125 -465
214 -173 105 -256 169 -401 310 l-122 118 34 56 c18 30 36 68 39 83 7 30 31
57 42 47 3 -4 17 -33 30 -64 13 -32 27 -65 30 -73 4 -8 -14 2 -39 22 -46 38
-65 48 -52 27 9 -15 124 -99 136 -99 6 0 0 15 -12 33 -24 37 -72 138 -68 143
2 1 66 -35 143 -82 77 -47 207 -119 289 -160 94 -48 161 -89 182 -111 19 -20
34 -37 34 -38 0 -1 -13 -5 -29 -8 -75 -15 -44 -100 37 -102 32 -1 45 -7 67
-33 34 -40 71 -43 85 -6 11 28 10 28 80 -22 68 -48 108 -66 116 -53 3 6 -9 42
-29 80 -19 38 -33 69 -30 69 2 0 19 -11 36 -24 112 -85 385 -144 595 -128 50
4 92 5 92 2 0 -3 -19 -15 -43 -27 -99 -48 -138 -112 -82 -133 29 -11 74 4 125
40 32 23 35 21 44 -32 14 -76 90 -127 116 -79 5 11 10 45 10 75 0 56 6 66 27
45 6 -6 38 -13 72 -16 48 -5 61 -3 61 8 -1 19 -28 50 -73 84 -46 34 -40 38 68
49 69 7 246 61 379 117 44 19 86 29 117 29 53 0 55 -3 34 -40 -39 -68 3 -120
67 -84 18 11 41 36 51 57 17 34 22 37 63 37 52 0 58 17 18 49 l-25 20 38 20
c54 28 123 89 123 110 0 13 15 24 48 36 53 20 120 67 205 144 l57 53 0 -29 c0
-36 22 -68 41 -61 8 3 25 26 37 52 23 45 34 52 66 40 13 -5 8 -15 -25 -55
-321 -384 -756 -653 -1234 -763 -157 -36 -156 -36 -100 -30 28 3 93 17 145 30
399 104 730 287 1015 563 207 200 342 385 470 646 113 230 174 431 211 690 20
141 22 411 5 559 -46 394 -205 789 -447 1113 -74 99 -284 315 -367 377 l-62
48 60 -53 c272 -237 489 -523 618 -813 74 -165 152 -417 159 -514 3 -30 0 -35
-33 -46 -20 -7 -50 -22 -66 -34 l-30 -22 -17 45 c-10 24 -38 67 -62 94 -28 31
-60 85 -84 141 -22 49 -47 102 -56 115 -9 14 -18 42 -20 61 -1 19 -16 59 -33
89 -17 30 -31 56 -31 58 0 3 27 7 60 10 67 6 113 29 104 52 -7 17 -48 29 -154
45 -41 6 -75 12 -76 13 -1 1 2 25 7 52 13 64 -2 141 -45 226 -55 112 -80 83
-80 -89 l0 -84 -20 28 c-40 55 -78 94 -92 94 -18 0 16 -90 52 -137 49 -65 21
-44 -68 52 -117 124 -257 260 -373 360 -49 43 -91 84 -93 90 -2 8 15 15 45 19
57 7 93 29 93 56 0 20 -38 37 -72 31 -13 -2 -18 5 -18 22 0 14 -9 35 -20 48
l-20 24 -29 -33 -29 -33 -6 35 c-8 42 -51 96 -76 96 -32 0 -33 -43 -5 -137 10
-31 -9 -30 -52 3 -76 58 -254 117 -389 129 -89 8 -93 9 -112 45 -11 21 -10 32
3 64 9 22 17 71 18 111 2 59 -2 77 -17 94 -11 12 -16 24 -13 27 9 9 171 -22
294 -57 133 -37 274 -90 377 -140 44 -21 81 -37 84 -35 6 7 -85 51 -206 100
-219 90 -466 147 -718 166 -77 5 -149 9 -160 9 -10 -1 -71 -6 -134 -10z m326
-15 l90 -7 -28 -55 c-16 -30 -28 -65 -28 -78 0 -13 -2 -24 -5 -24 -3 0 -28 18
-56 40 -51 40 -82 50 -94 29 -13 -20 6 -79 40 -124 19 -25 35 -46 35 -48 0 -1
-45 1 -101 6 -80 7 -105 6 -122 -6 -16 -10 -38 -12 -80 -7 -31 3 -108 3 -170
-1 -61 -4 -132 -8 -156 -8 l-45 -1 28 29 c40 41 33 75 -15 79 -29 2 -42 -3
-65 -26 l-29 -29 -58 44 c-33 24 -63 43 -68 43 -5 0 -9 4 -9 9 0 6 37 21 83
35 283 86 569 120 853 100z m132 -51 c20 -68 23 -117 10 -168 l-13 -50 -47 -1
c-47 -2 -48 -1 -48 28 0 22 4 29 15 25 12 -5 12 -2 3 19 -8 18 -8 37 0 75 12
49 45 109 61 109 4 0 13 -17 19 -37z m-154 -94 c42 -37 46 -45 46 -85 0 -36
-3 -44 -18 -44 -36 0 -112 102 -112 150 0 32 32 24 84 -21z m-845 -54 c34 -25
61 -51 60 -57 0 -7 -14 -24 -31 -37 -30 -24 -30 -24 -24 -3 5 13 3 22 -3 22
-6 0 -11 7 -11 15 0 8 -9 19 -20 25 -17 9 -50 58 -50 75 0 13 22 2 79 -40z
m188 -1 c3 -9 -6 -27 -23 -45 -24 -25 -35 -29 -58 -25 -40 8 -41 11 -22 41 27
41 91 59 103 29z m-217 -66 c36 -39 23 -48 -35 -24 -34 15 -42 26 -28 39 13
14 43 6 63 -15z m903 -27 c4 -5 1 -26 -8 -49 -16 -40 -18 -41 -57 -36 -42 5
-191 75 -204 95 -5 9 25 10 127 5 74 -4 138 -11 142 -15z m-758 -1 c3 -5 2
-10 -4 -10 -5 0 -13 5 -16 10 -3 6 -2 10 4 10 5 0 13 -4 16 -10z m848 3 c-7
-2 -19 -2 -25 0 -7 3 -2 5 12 5 14 0 19 -2 13 -5z m-718 -23 c15 -6 25 -15 23
-22 -8 -23 -35 -31 -81 -24 -37 6 -47 11 -47 26 0 29 53 40 105 20z m-265 -18
c0 -11 9 -27 20 -37 27 -24 25 -32 -10 -50 -38 -20 -46 -19 -70 5 -24 24 -26
57 -3 82 22 24 63 24 63 0z m975 8 c3 -5 -3 -10 -15 -10 -12 0 -18 5 -15 10 3
6 10 10 15 10 5 0 12 -4 15 -10z m-825 -7 c0 -14 -34 -43 -51 -43 -17 0 -16 2
4 24 21 23 47 33 47 19z m770 -34 c0 -5 -4 -9 -10 -9 -5 0 -10 7 -10 16 0 8 5
12 10 9 6 -3 10 -10 10 -16z m110 1 c0 -5 -5 -10 -11 -10 -5 0 -8 -4 -4 -10 3
-5 -6 -17 -20 -26 -20 -13 -29 -14 -38 -5 -8 8 -7 11 4 11 9 0 21 11 27 25 11
24 42 35 42 15z m-856 -25 c9 -14 19 -39 23 -55 4 -25 2 -30 -13 -30 -16 0
-84 65 -84 80 0 5 38 26 51 29 4 0 14 -10 23 -24z m1006 8 c2 -2 -2 -8 -10
-13 -21 -14 -74 -12 -88 2 -9 9 -12 8 -12 -4 0 -9 5 -20 10 -23 6 -4 8 -10 5
-15 -3 -4 2 -13 10 -20 7 -6 23 -27 34 -45 l20 -34 -32 6 c-18 3 -40 10 -49
14 -9 5 -25 9 -35 9 -22 0 -93 46 -93 60 0 6 10 10 23 10 12 0 33 7 45 16 21
15 25 15 43 -2 10 -9 21 -15 24 -12 3 3 -4 13 -15 23 -11 10 -20 25 -20 33 0
12 12 13 68 7 37 -4 69 -9 72 -12z m439 -5 c22 -22 35 -59 46 -120 6 -36 4
-38 -20 -38 -23 0 -26 -4 -23 -27 3 -30 -15 -39 -58 -29 -30 8 -51 43 -35 59
9 9 17 8 31 -1 13 -8 20 -9 20 -1 0 5 8 9 18 8 39 -4 45 1 24 19 -24 20 -42
72 -42 118 0 39 11 43 39 12z m-708 -51 c-8 -24 -58 -53 -110 -63 -32 -7 -33
-6 -26 17 4 13 18 39 32 57 19 26 29 31 49 26 19 -5 24 -2 24 12 1 17 3 17 20
-4 13 -16 17 -29 11 -45z m-1150 -8 c-12 -15 -21 -32 -21 -37 0 -4 20 -13 45
-20 27 -7 61 -27 83 -48 l37 -36 -52 6 c-28 4 -69 13 -90 20 -35 12 -38 16
-35 45 2 18 -3 43 -12 56 -14 21 -13 24 2 37 9 9 26 20 37 26 29 16 33 -13 6
-49z m343 20 c15 -32 16 -46 7 -65 -16 -36 -40 -29 -61 18 -17 38 -17 43 -3
65 22 33 35 28 57 -18z m1225 15 c85 -26 157 -58 196 -88 20 -14 20 -15 1 -29
-27 -20 -14 -62 24 -82 29 -15 29 -15 12 -44 -13 -24 -14 -34 -4 -55 12 -28
31 -32 64 -15 17 9 25 6 47 -15 41 -39 61 -27 61 36 l0 49 93 -77 c94 -80 400
-382 416 -412 8 -15 3 -17 -44 -14 -55 4 -95 -9 -95 -32 0 -32 97 -86 156 -86
24 0 24 -2 22 -80 -2 -71 0 -83 19 -102 20 -19 25 -20 47 -8 14 7 34 30 44 51
l19 38 44 -45 c24 -25 56 -52 72 -60 44 -23 127 -206 138 -303 5 -43 18 -95
32 -122 l23 -46 -48 -52 c-26 -29 -48 -59 -48 -66 0 -36 47 -24 104 26 20 17
39 30 41 27 13 -13 26 -132 23 -203 -3 -71 -6 -83 -30 -109 -25 -26 -68 -120
-68 -148 0 -7 -18 5 -39 26 -58 57 -93 31 -66 -48 12 -34 12 -36 -10 -36 -52
0 -54 -50 -4 -76 16 -8 29 -16 29 -17 0 -2 -9 -22 -21 -46 -11 -23 -19 -50
-17 -59 6 -25 47 -17 90 19 l38 30 0 -51 c0 -28 -4 -59 -9 -68 -13 -26 -23
-104 -12 -98 11 7 19 52 31 166 4 47 9 87 9 90 1 3 15 -22 31 -56 32 -66 66
-92 94 -71 27 20 31 78 8 130 l-20 46 39 41 c22 23 39 49 37 58 -4 23 -50 27
-88 7 l-31 -16 17 33 c9 18 16 50 15 73 0 22 -3 105 -7 185 -5 141 -5 144 13
128 25 -23 91 -50 103 -43 12 7 4 44 -22 106 l-19 45 34 37 35 36 6 -32 c14
-72 18 -438 7 -549 -34 -310 -142 -643 -293 -898 -80 -136 -115 -181 -133
-174 -13 5 -11 11 11 30 14 14 24 30 21 37 -4 13 -47 15 -91 2 -26 -7 -27 -6
-17 12 10 20 8 31 -22 116 -5 15 -13 27 -17 27 -8 0 -26 -40 -36 -83 -4 -19
-10 -25 -18 -19 -37 30 -96 11 -96 -31 0 -12 9 -36 19 -53 l19 -31 -33 -12
c-18 -6 -40 -20 -50 -31 -17 -19 -17 -20 7 -29 15 -6 41 -6 63 -1 l38 9 -44
-46 c-109 -111 -220 -173 -338 -188 -30 -3 -69 -12 -88 -20 -31 -13 -33 -13
-33 6 0 22 -18 25 -45 5 -18 -13 -21 -11 -32 15 -7 16 -17 29 -22 29 -21 0
-81 -71 -81 -95 0 -21 -7 -26 -45 -36 -24 -6 -50 -18 -57 -27 -11 -12 -8 -18
14 -35 l28 -21 -68 -29 c-118 -50 -255 -94 -329 -106 -98 -15 -98 -15 -59 20
45 39 78 92 70 113 -12 30 -92 16 -166 -31 -21 -13 -40 -23 -43 -23 -3 0 -5
15 -5 34 0 19 -5 38 -11 41 -16 10 -47 -23 -55 -57 l-6 -31 -30 32 c-30 32
-71 41 -84 19 -12 -18 -6 -79 10 -103 21 -32 10 -35 -141 -35 -193 0 -409 52
-516 125 -37 26 -37 26 -21 56 8 17 14 44 12 62 -4 41 -47 54 -110 33 -23 -8
-42 -14 -43 -13 -7 40 -101 127 -137 127 -18 0 -20 -5 -15 -32 3 -18 9 -41 13
-52 6 -15 4 -17 -14 -11 -12 3 -37 7 -54 7 -41 0 -246 101 -418 204 -126 76
-151 95 -96 74 48 -18 156 -11 156 10 0 11 -105 64 -177 90 -96 34 -59 56 42
25 27 -8 51 -13 53 -11 2 2 -12 21 -30 42 -38 43 -98 73 -145 74 -31 0 -33 2
-33 35 0 43 -22 88 -52 109 -37 26 -48 20 -48 -26 l0 -41 -27 24 -27 24 22
-29 c22 -29 63 -144 61 -175 0 -13 -2 -13 -6 -1 -4 8 -17 29 -30 47 -14 17
-31 55 -38 83 -14 54 -25 75 -25 48 0 -30 28 -107 50 -138 12 -17 20 -33 17
-36 -8 -8 -101 72 -165 142 -80 89 -147 185 -210 304 -46 87 -50 97 -39 124
l12 28 23 -54 c28 -68 68 -110 83 -88 16 24 4 179 -17 229 -20 44 -20 45 0 85
15 30 22 67 24 138 3 58 0 98 -5 98 -14 0 -48 -40 -67 -77 -30 -60 -39 -52
-32 27 8 81 33 174 99 366 60 175 77 215 88 208 18 -11 128 134 129 169 0 19
-19 3 -30 -25 -7 -18 -31 -57 -53 -87 -35 -47 -41 -52 -47 -35 -7 18 -8 17
-15 -5 -11 -36 -23 -13 -36 71 -14 98 -7 138 30 166 35 25 66 20 98 -19 34
-39 88 -62 130 -54 30 5 35 4 30 -10 -28 -72 -68 -280 -66 -345 1 -38 3 -34
10 25 42 348 178 664 399 928 234 280 599 496 964 571 142 30 331 40 483 28
410 -35 765 -196 1056 -481 250 -243 407 -530 484 -881 34 -159 43 -427 19
-585 -45 -292 -149 -548 -317 -777 -68 -92 -248 -280 -261 -272 -4 3 -8 22 -9
42 -1 34 -2 35 -10 12 -7 -20 -8 -18 -4 11 7 46 -15 139 -64 277 -57 158 -103
242 -147 270 -20 12 -39 21 -41 18 -3 -2 5 -9 16 -16 14 -7 21 -20 21 -38 0
-26 -1 -25 -23 13 -15 28 -32 43 -55 50 -19 5 -55 33 -83 62 -27 28 -50 50
-50 47 -1 -2 -2 -8 -3 -13 -3 -23 -18 -22 -44 3 -20 18 -34 24 -47 20 -13 -5
-16 -4 -11 5 4 7 -2 20 -16 31 -30 25 -38 25 -33 -1 3 -12 1 -18 -3 -15 -4 4
-7 19 -7 33 0 23 -7 28 -62 45 -58 18 -63 18 -87 3 -23 -15 -31 -33 -27 -57 0
-5 -5 -8 -13 -8 -21 0 -25 35 -10 80 12 34 12 46 0 80 -8 22 -10 43 -5 46 14
8 10 76 -5 103 -12 21 -11 28 5 55 13 21 19 50 19 88 0 31 4 59 9 62 12 8 24
78 23 134 0 33 3 42 16 42 25 0 72 32 119 79 l41 42 -3 87 c-2 48 -8 107 -13
132 -6 25 -16 74 -23 108 -11 58 -18 70 -75 129 -34 36 -74 71 -88 78 -38 20
-116 88 -116 101 0 6 -10 19 -21 30 l-22 19 13 -25 c13 -24 13 -24 -11 -9 -69
44 -100 59 -164 79 -38 12 -78 26 -87 31 -29 15 -209 10 -253 -7 -22 -8 -74
-26 -116 -40 -98 -31 -178 -85 -258 -173 -75 -82 -103 -123 -125 -177 -9 -21
-23 -44 -32 -50 -9 -7 -16 -32 -18 -60 -7 -93 -9 -100 -17 -49 -4 29 -5 -12
-3 -99 2 -82 6 -151 9 -154 3 -3 5 19 5 48 l0 54 44 -91 c24 -50 49 -94 55
-97 6 -4 11 -34 11 -66 0 -100 47 -161 111 -145 22 5 30 -2 64 -54 22 -33 41
-58 44 -56 2 3 31 -18 63 -45 33 -28 65 -50 72 -50 35 0 65 -63 71 -147 3 -39
-1 -46 -57 -108 -87 -95 -188 -156 -288 -175 l-45 -9 54 3 55 3 -37 -19 c-37
-18 -49 -38 -24 -38 6 0 -1 -12 -16 -26 -28 -24 -157 -278 -157 -308 0 -8 -7
-43 -16 -77 -12 -47 -15 -96 -12 -195 l4 -133 -36 21 c-19 12 -66 45 -105 74
-324 243 -557 609 -644 1009 -18 86 -38 256 -45 395 -2 36 -2 -5 0 -90 7 -306
90 -587 255 -857 118 -192 314 -393 520 -531 47 -31 79 -60 82 -74 5 -18 9
-20 18 -11 10 10 16 10 27 1 8 -7 23 -13 33 -15 11 -2 36 -11 57 -22 141 -70
361 -132 547 -152 173 -18 641 7 603 33 -8 6 -2 7 18 3 27 -5 262 30 273 41 8
8 -25 4 -129 -16 -118 -23 -157 -25 -90 -5 49 14 184 69 213 85 24 14 21 1 -5
-29 -13 -14 -2 -7 23 16 24 24 48 43 52 43 4 0 26 11 48 25 25 16 47 24 60 20
13 -5 17 -2 13 8 -3 9 21 31 73 64 233 149 458 413 588 687 129 271 185 570
163 861 -63 821 -667 1469 -1485 1590 -57 8 -118 15 -135 16 -31 0 -30 2 18
19 28 10 61 23 73 30 19 10 27 8 56 -14 18 -14 46 -31 60 -36 35 -13 113 -22
126 -15 6 4 -2 28 -21 61 -35 63 -35 63 -12 58 9 -2 35 5 57 15 53 25 55 25
154 -5z m419 -71 c3 -27 -1 -32 -29 -42 -18 -6 -33 -11 -35 -11 -5 0 19 65 29
78 16 20 32 8 35 -25z m-2053 17 c3 -5 2 -10 -4 -10 -5 0 -13 5 -16 10 -3 6
-2 10 4 10 5 0 13 -4 16 -10z m25 -44 c0 -3 -4 -8 -10 -11 -5 -3 -10 -1 -10 4
0 6 5 11 10 11 6 0 10 -2 10 -4z m-64 -30 c3 -8 -1 -27 -9 -43 -18 -32 -74
-89 -82 -81 -7 7 32 99 52 121 19 21 32 22 39 3z m2190 3 c11 -19 -19 -39 -79
-51 -61 -13 -61 -13 -71 18 -5 17 -1 23 26 31 44 15 115 16 124 2z m-206 -122
c0 -37 -4 -46 -25 -55 -19 -9 -27 -8 -39 3 -19 19 -10 51 22 75 36 29 42 25
42 -23z m65 23 c3 -5 9 -32 12 -60 5 -45 4 -50 -14 -50 -20 0 -48 44 -38 60 3
5 1 11 -5 15 -5 3 -10 15 -10 26 0 14 7 19 24 19 14 0 28 -4 31 -10z m-2351
-152 c-45 -81 -106 -117 -196 -118 -47 0 -56 3 -52 15 4 8 1 22 -6 30 -15 18
-17 17 40 45 64 33 87 38 158 39 48 1 61 -2 56 -11z m3041 -176 c29 -73 41
-151 31 -204 -6 -35 -7 -35 -41 -24 -19 6 -38 18 -41 26 -10 25 -17 195 -10
245 9 60 24 49 61 -43z m-3325 68 c0 -5 -5 -10 -11 -10 -5 0 -7 5 -4 10 3 6 8
10 11 10 2 0 4 -4 4 -10z m2 -64 c22 -33 -1 -120 -46 -172 l-34 -39 -7 38 c-9
48 -2 111 18 159 13 31 19 36 39 31 13 -4 26 -11 30 -17z m3165 -63 c39 -50
91 -131 98 -153 l8 -25 -23 20 c-30 27 -74 92 -93 138 -17 40 -13 48 10 20z
m38 -166 c11 -6 25 -10 32 -9 17 4 -5 -58 -23 -65 -8 -3 -36 0 -64 7 -81 19
-131 73 -77 83 32 5 109 -4 132 -16z m328 -69 c88 -18 42 -48 -77 -48 -83 0
-109 13 -99 49 6 22 9 23 67 16 34 -3 82 -11 109 -17z m-230 -28 c16 0 18 -7
13 -61 -6 -68 -27 -109 -56 -109 -26 0 -40 29 -40 84 0 67 15 100 43 92 12 -3
30 -6 40 -6z m111 -112 c20 -32 33 -58 28 -58 -5 0 -32 24 -60 54 -39 41 -49
59 -45 76 6 21 6 21 23 3 10 -10 34 -44 54 -75z m29 13 c52 -87 42 -98 -13
-14 -54 82 -56 87 -39 81 7 -2 30 -33 52 -67z m-2183 54 c0 -2 -15 -12 -32
-20 l-33 -16 24 21 c22 19 41 26 41 15z m185 -65 c3 -5 1 -10 -4 -10 -6 0 -11
5 -11 10 0 6 2 10 4 10 3 0 8 -4 11 -10z m-3 -77 c56 -59 118 -141 118 -158 0
-3 -8 -1 -19 4 -38 21 -154 11 -120 -9 7 -5 20 -5 30 0 22 12 75 -4 124 -38
29 -20 53 -53 90 -121 28 -51 60 -104 73 -118 12 -13 22 -27 22 -30 0 -3 11
-18 25 -35 32 -38 31 -48 -5 -83 -28 -27 -41 -53 -20 -40 13 8 13 -18 -1 -32
-16 -16 -7 -58 12 -57 16 1 16 -2 1 -45 -12 -35 -40 -71 -116 -149 -56 -56
-102 -107 -104 -112 -2 -6 -8 -10 -14 -10 -6 0 -3 9 7 20 33 37 -5 22 -65 -26
-32 -25 -63 -43 -69 -40 -5 3 -11 2 -13 -3 -1 -5 -52 24 -112 65 -61 40 -113
71 -117 69 -11 -7 -134 128 -149 164 -11 28 -11 34 1 43 11 8 11 9 -3 5 -17
-6 -35 35 -18 41 17 6 11 26 -15 51 -14 13 -28 35 -31 50 -4 14 -11 32 -17 38
-6 9 0 27 21 60 16 27 54 94 83 151 39 74 61 106 82 115 29 13 36 27 12 27 -8
0 -15 3 -15 7 0 21 69 108 108 137 26 19 67 55 92 80 24 25 47 46 50 46 4 0
36 -30 72 -67z m-1698 14 c13 -50 23 -72 33 -72 6 0 14 -3 17 -7 3 -5 3 -6 0
-3 -4 2 -13 -2 -21 -10 -10 -11 -20 -12 -39 -5 -14 6 -30 7 -36 4 -6 -4 -14 0
-19 7 -10 16 -12 113 -3 122 9 8 64 -21 68 -36z m194 31 c36 -36 -7 -168 -55
-168 -13 0 -23 5 -23 10 0 6 -9 19 -20 30 -19 19 -19 22 -4 53 14 28 70 86 85
87 3 0 10 -5 17 -12z m-97 -159 c3 -13 1 -30 -4 -36 -18 -23 -25 -13 -14 17
10 25 9 33 -3 41 -13 9 -13 10 0 7 8 -3 17 -15 21 -29z m109 -44 c76 -39 75
-88 -1 -93 -38 -3 -50 2 -84 31 l-39 33 20 27 c16 22 24 26 49 21 17 -4 41
-12 55 -19z m3731 -224 c38 -59 38 -88 2 -87 -21 1 -31 10 -49 46 -12 25 -25
65 -29 90 l-6 44 27 -24 c15 -14 40 -45 55 -69z m168 -60 c-23 -32 -104 -80
-115 -69 -14 14 7 38 58 67 68 39 85 40 57 2z m-169 -61 c0 -5 -5 -10 -11 -10
-5 0 -7 5 -4 10 3 6 8 10 11 10 2 0 4 -4 4 -10z m-43 -65 c-39 -34 -77 -50
-77 -34 0 5 18 29 41 54 38 41 42 43 57 28 15 -15 13 -18 -21 -48z m183 -1
c11 -30 20 -59 20 -64 0 -36 -103 30 -121 78 -12 32 -7 37 40 38 40 2 40 2 61
-52z m-2885 -35 c11 -17 -1 -21 -15 -4 -8 9 -8 15 -2 15 6 0 14 -5 17 -11z
m906 -66 c-9 -16 -10 -16 -11 -1 0 9 3 25 7 35 7 16 8 17 11 1 2 -10 -1 -25
-7 -35z m-909 -42 c3 -31 7 -37 33 -41 35 -6 46 -35 15 -43 -54 -14 -87 25
-97 116 l-6 52 26 -24 c17 -15 27 -36 29 -60z m48 -19 c0 -23 -35 -8 -38 16
-3 21 -2 22 17 10 12 -7 21 -19 21 -26z m811 -137 c4 -6 11 -42 15 -80 4 -39
13 -82 20 -96 8 -16 9 -30 3 -40 -14 -22 -11 -68 8 -107 13 -27 14 -37 5 -40
-10 -3 -10 -7 -1 -18 9 -11 8 -18 -5 -32 -9 -10 -16 -26 -16 -36 0 -27 -77 40
-109 94 -24 42 -26 54 -26 160 0 123 4 135 59 202 24 29 32 33 35 20 2 -9 7
-22 12 -27z m1939 -21 c14 -70 -35 -174 -81 -174 -25 0 -26 1 -18 48 8 53 24
93 52 135 23 34 40 31 47 -9z m-2065 -96 c-23 -44 -26 -151 -7 -239 14 -64 14
-79 -2 -186 -10 -63 -20 -122 -23 -130 -8 -20 -104 -10 -183 18 -30 11 -77 26
-104 34 -26 8 -55 23 -63 34 -8 12 -23 21 -33 21 -10 0 -32 18 -50 39 l-31 40
56 42 c30 23 55 43 55 46 0 2 -5 1 -11 -3 -8 -5 -8 -1 0 14 6 12 15 23 20 26
8 5 26 -48 34 -104 3 -18 5 -15 6 10 1 47 -17 197 -29 233 -11 33 -9 33 51 0
l49 -26 62 27 c35 14 97 52 138 85 41 32 77 57 79 55 1 -1 -5 -18 -14 -36z
m1910 -5 c37 -40 45 -77 20 -87 -22 -8 -39 1 -58 33 -19 32 -23 91 -6 91 5 0
26 -17 44 -37z m-3905 -61 c0 -61 -23 -153 -46 -187 -14 -19 -14 -19 -14 2 0
12 -9 28 -20 36 -17 11 -20 21 -14 43 9 39 74 164 85 164 5 0 9 -26 9 -58z
m4140 19 c0 -10 -16 -33 -36 -51 -33 -28 -38 -30 -57 -17 -33 22 -31 34 10 61
46 31 83 34 83 7z m-2153 -78 c-3 -10 -5 -2 -5 17 0 19 2 27 5 18 2 -10 2 -26
0 -35z m1911 14 c10 -11 9 -16 -6 -30 -22 -20 -57 -12 -82 18 -12 14 -12 18 1
26 17 12 69 3 87 -14z m96 14 c4 -5 -3 -7 -14 -4 -23 6 -26 13 -6 13 8 0 17
-4 20 -9z m-48 -36 c0 -18 -3 -32 -8 -29 -13 8 -8 64 6 64 1 0 1 -16 2 -35z
m117 -14 c40 -45 55 -99 38 -137 -19 -43 -51 -28 -85 40 -24 48 -27 61 -18 77
7 10 12 28 12 39 0 30 13 25 53 -19z m-1783 1 c0 -15 -2 -15 -10 -2 -13 20
-13 33 0 25 6 -3 10 -14 10 -23z m-2415 -12 c19 -16 19 -40 1 -40 -8 0 -21 -9
-29 -21 -14 -20 -15 -19 -51 22 -20 24 -36 46 -36 50 0 21 87 12 115 -11z
m4066 -2 c26 -32 24 -41 -21 -82 -47 -42 -85 -49 -74 -13 12 40 35 78 50 84 7
3 14 11 14 19 0 20 9 17 31 -8z m-3942 -222 c24 -129 10 -178 -32 -113 -56 85
-67 190 -23 207 27 10 40 -13 55 -94z m2101 53 c0 -14 -8 -11 -30 11 -27 27
-25 34 5 14 14 -9 25 -20 25 -25z m210 21 c0 -5 -4 -10 -10 -10 -5 0 -10 5
-10 10 0 6 5 10 10 10 6 0 10 -4 10 -10z m-2414 -43 c7 -21 -36 -109 -50 -104
-12 4 -20 89 -12 123 5 20 9 21 31 11 14 -7 28 -20 31 -30z m2252 -24 c2 -11
-4 -23 -12 -26 -12 -5 -16 1 -16 24 0 35 23 36 28 2z m-614 -64 c-3 -5 -15 -4
-27 2 -29 16 -28 14 -21 33 6 15 9 15 30 -5 13 -12 21 -26 18 -30z m1186 26
c11 -13 10 -14 -4 -9 -9 3 -16 10 -16 15 0 13 6 11 20 -6z m9 -71 c2 -2 -2 -4
-10 -4 -8 0 -25 10 -39 21 l-25 20 35 -17 c19 -9 37 -18 39 -20z m-2694 -259
c47 -67 168 -194 230 -244 l40 -31 -53 -46 c-28 -25 -52 -52 -52 -60 0 -17 67
-19 90 -3 11 7 3 8 -27 4 -27 -4 -43 -3 -43 3 0 11 90 92 101 92 4 0 9 -15 11
-32 4 -23 -2 -44 -17 -69 -13 -19 -30 -55 -37 -78 l-15 -43 -50 64 c-125 157
-253 385 -334 592 -21 55 -39 103 -39 107 0 4 8 9 18 11 13 3 31 -22 76 -102
32 -58 77 -132 101 -165z m1313 248 c-8 -10 -18 -30 -22 -45 -3 -16 -11 -28
-16 -28 -13 0 9 62 28 78 23 17 28 15 10 -5z m282 -3 c19 -11 29 -19 23 -20
-7 0 -26 -21 -43 -47 -16 -27 -30 -43 -30 -37 0 5 4 14 9 20 5 5 11 27 14 49
4 22 4 34 1 28 -9 -20 -24 -15 -24 7 0 24 5 24 50 0z m1090 -39 c0 -4 -7 -16
-15 -27 -14 -18 -14 -17 -15 14 0 25 -4 32 -20 32 -11 0 -20 7 -20 15 0 11 7
10 35 -6 19 -12 35 -24 35 -28z m-1040 -21 c0 -5 -7 -10 -16 -10 -8 0 -12 5
-9 10 3 6 10 10 16 10 5 0 9 -4 9 -10z m-400 -80 c-17 -33 -33 -60 -35 -60 -3
0 8 27 25 60 17 33 33 60 35 60 3 0 -8 -27 -25 -60z m-19 -97 c-12 -20 -14
-14 -5 12 4 9 9 14 11 11 3 -2 0 -13 -6 -23z m1028 -28 c10 3 29 1 42 -4 20
-8 17 -10 -26 -11 -27 -1 -61 -6 -75 -11 -18 -6 -8 -7 35 -4 33 2 79 1 102 -2
38 -5 43 -8 37 -26 -4 -13 -2 -17 5 -13 6 4 11 14 11 21 0 11 8 13 33 8 67
-13 121 -45 201 -120 45 -43 103 -95 128 -115 l46 -37 -2 -79 c-1 -76 -2 -81
-40 -127 -48 -58 -147 -110 -178 -94 -14 8 -17 14 -8 23 12 15 4 45 -14 47
-26 3 -104 9 -151 12 -45 2 -50 4 -52 26 -1 29 -38 60 -70 61 -25 0 -58 -31
-66 -62 -4 -14 5 -31 30 -56 30 -30 38 -33 54 -24 17 11 19 9 19 -15 0 -65 74
-82 165 -38 52 26 80 31 89 17 7 -11 -144 -60 -236 -77 -40 -7 -100 -18 -134
-25 -50 -11 -70 -11 -108 0 -48 13 -62 30 -24 30 12 0 19 3 15 6 -3 3 -49 -2
-102 -11 -132 -24 -267 -12 -410 37 -83 29 -115 45 -153 82 -18 17 -36 29 -40
27 -14 -7 -36 55 -40 111 -2 32 -8 55 -13 53 -13 -9 1 -106 22 -150 11 -23 33
-48 51 -59 18 -10 43 -28 55 -38 12 -11 26 -17 31 -14 13 8 93 -25 86 -35 -3
-5 3 -9 12 -9 10 0 15 -3 12 -6 -14 -13 -334 89 -362 116 -15 14 3 74 39 134
19 31 32 63 29 70 -3 7 2 19 11 26 18 15 20 0 3 -19 -11 -11 -9 -11 9 -2 12 6
28 20 35 30 7 10 37 31 66 47 29 16 48 30 43 32 -6 2 -32 -8 -59 -22 l-47 -26
48 44 c61 57 257 156 233 118 -2 -4 27 8 64 26 87 42 243 82 329 84 l66 1 -50
7 c-50 6 -50 6 33 14 46 5 78 12 72 16 -15 9 -1 20 45 35 27 9 30 8 33 -13 3
-17 8 -21 21 -17z m-126 -2 c-7 -2 -19 -2 -25 0 -7 3 -2 5 12 5 14 0 19 -2 13
-5z m-1786 -49 c10 -16 18 -54 21 -104 l5 -79 -26 12 c-28 13 -40 50 -53 163
-7 55 -7 56 14 45 12 -7 30 -23 39 -37z m2070 30 c-3 -3 -12 -4 -19 -1 -8 3
-5 6 6 6 11 1 17 -2 13 -5z m68 -14 c-3 -5 -13 -6 -21 -3 -12 4 -13 8 -3 14
15 9 32 2 24 -11z m170 -19 c-3 -12 -13 -21 -21 -21 -18 0 -18 9 3 32 20 22
27 17 18 -11z m-90 -12 c11 -17 0 -20 -21 -4 -17 13 -17 14 -2 15 9 0 20 -5
23 -11z m-1394 -70 c-5 -30 -9 -42 -10 -28 -1 30 10 92 15 86 3 -2 0 -28 -5
-58z m-59 19 c-7 -7 -12 -8 -12 -2 0 6 3 14 7 17 3 4 9 5 12 2 2 -3 -1 -11 -7
-17z m536 -3 c-10 -10 -98 -33 -98 -25 0 4 17 12 38 18 42 11 68 14 60 7z
m1065 -99 c15 -22 2 -14 -46 28 -37 33 -67 64 -67 68 0 14 88 -61 113 -96z
m-1213 52 c0 -9 -16 -26 -35 -38 -19 -12 -40 -30 -45 -41 -6 -10 -16 -19 -23
-19 -7 0 9 21 36 46 33 32 47 54 47 72 0 21 2 24 10 12 5 -8 10 -23 10 -32z
m2175 -19 c9 -52 -2 -132 -18 -126 -23 7 -20 167 3 167 4 0 11 -18 15 -41z
m-3185 -4 c14 -7 33 -21 42 -31 16 -18 14 -19 -63 -19 -76 0 -80 1 -86 24 -12
47 40 60 107 26z m3108 -41 c29 -20 28 -55 -3 -77 -29 -21 -39 -17 -61 24 -29
57 11 91 64 53z m-3248 -14 c0 -5 -2 -10 -4 -10 -3 0 -8 5 -11 10 -3 6 -1 10
4 10 6 0 11 -4 11 -10z m121 -45 c71 -25 179 -77 179 -86 0 -18 -91 -8 -170
17 -80 25 -98 39 -86 69 7 19 22 19 77 0z m3296 -10 c-30 -27 -92 -36 -85 -12
7 18 49 37 83 37 l30 -1 -28 -24z m-907 -40 c0 -12 -29 -3 -34 10 -4 13 -2 14
14 5 11 -6 20 -13 20 -15z m745 -16 c0 -8 -16 -19 -35 -26 -41 -14 -100 -17
-100 -4 0 13 88 44 106 37 9 -4 12 -2 8 5 -4 7 -1 10 7 7 8 -3 14 -11 14 -19z
m90 11 c3 -5 12 -7 20 -3 8 3 26 2 40 -1 22 -6 24 -9 15 -26 -8 -14 -21 -20
-46 -20 -28 0 -36 5 -44 26 -6 14 -10 27 -10 30 0 8 19 4 25 -6z m-3359 -14
c7 -18 -56 -148 -75 -154 -20 -7 -6 58 25 120 25 49 40 59 50 34z m2513 -33
c10 -17 10 -17 11 0 0 9 4 17 10 17 18 0 90 -32 90 -40 0 -5 -30 -28 -67 -53
-116 -75 -127 -79 -98 -27 8 14 14 43 15 66 0 55 18 72 39 37z m801 7 c19 -10
19 -11 -2 -55 -32 -66 -56 -59 -49 15 2 23 17 50 28 50 2 0 13 -5 23 -10z
m-1332 -89 c30 -25 27 -52 -8 -86 -16 -16 -30 -23 -30 -17 0 7 -11 18 -25 24
-29 13 -33 43 -9 76 19 27 44 28 72 3z m-1168 -38 c-1 -24 -2 -26 -11 -10 -5
9 -7 22 -4 27 10 17 15 11 15 -17z m64 -48 c-4 -8 -10 -12 -15 -9 -11 6 -2 24
11 24 5 0 7 -7 4 -15z m1210 4 c-2 -4 3 -10 12 -13 8 -3 12 -2 9 4 -3 6 -1 10
4 10 6 0 11 -3 11 -7 0 -5 14 -8 30 -8 17 0 30 3 30 8 0 4 8 7 18 7 14 0 15
-2 2 -10 -11 -7 -12 -12 -3 -18 8 -5 -4 -15 -34 -30 -30 -15 -41 -17 -33 -7 9
10 9 15 1 15 -20 0 -26 -4 -23 -16 3 -15 -3 -19 -40 -28 -29 -7 -63 17 -52 36
4 6 2 8 -4 4 -18 -11 -22 10 -6 30 9 11 13 12 9 4 -3 -8 1 -6 9 5 13 17 71 30
60 14z m-1275 -59 c40 -30 81 -93 68 -106 -4 -4 -13 -1 -22 6 -8 7 -24 10 -35
7 -13 -3 -20 0 -20 9 0 8 -4 14 -9 14 -7 0 -41 80 -41 97 0 10 22 0 59 -27z
m1835 -16 c12 -32 6 -54 -14 -54 -11 0 -23 -7 -26 -15 -7 -17 -30 -20 -39 -5
-11 18 37 90 60 90 7 0 16 -7 19 -16z m76 -8 c0 -20 -22 -56 -35 -56 -20 0
-19 19 2 42 15 17 33 24 33 14z m160 -48 c-51 -46 -112 -77 -152 -78 -25 0
-28 4 -28 34 0 31 5 36 52 60 39 20 67 26 112 26 l61 -1 -45 -41z m-2118 -28
c7 1 2 7 -12 15 -29 17 -22 19 14 6 15 -6 23 -17 22 -28 -4 -29 -38 -26 -76 7
l-35 30 37 -15 c21 -8 43 -15 50 -15z m273 10 c6 -10 -9 -76 -24 -99 -8 -12
-15 -9 -42 13 -17 15 -45 30 -60 33 -39 7 -36 19 9 42 39 21 107 28 117 11z
m268 -7 c-7 -2 -19 -2 -25 0 -7 3 -2 5 12 5 14 0 19 -2 13 -5z m417 -14 l25
-21 -175 6 c-96 3 -191 10 -210 15 -24 6 3 7 80 4 63 -3 140 0 170 5 79 14 82
14 110 -9z m-869 -5 c12 -15 11 -16 -8 -10 -12 4 -24 2 -28 -4 -3 -5 -11 -10
-17 -10 -6 0 -3 9 7 20 22 24 29 25 46 4z m1729 -19 c0 -9 -16 -23 -35 -32
-28 -13 -39 -14 -60 -5 -31 14 -32 26 -2 40 35 17 97 15 97 -3z m-1810 -40
c14 -37 3 -55 -34 -55 -35 0 -76 24 -76 45 0 20 29 34 68 35 26 0 34 -5 42
-25z m159 11 c50 -26 139 -148 129 -177 -4 -12 -112 57 -151 96 -19 20 -27 36
-23 50 3 11 6 26 6 33 0 15 5 15 39 -2z m1665 -17 c-34 -13 -50 -11 -29 5 11
8 26 11 34 8 12 -4 11 -7 -5 -13z m105 -10 c-11 -6 -11 -11 -1 -21 19 -19 14
-44 -14 -77 -18 -22 -35 -31 -55 -31 -40 0 -44 19 -19 78 17 39 28 52 53 59
35 11 57 6 36 -8z m82 4 c36 -21 37 -33 3 -33 -33 0 -64 17 -64 35 0 20 25 19
61 -2z m-905 -25 c-3 -13 -6 -31 -6 -40 0 -11 -8 -18 -21 -18 -16 0 -19 4 -14
23 4 12 9 30 11 40 3 9 12 17 21 17 11 0 14 -6 9 -22z m214 2 c0 -24 -63 -96
-101 -115 -15 -8 -45 -19 -68 -24 l-41 -9 -6 35 c-8 40 -1 46 100 98 79 40
116 45 116 15z m-315 -26 c26 -28 33 -54 15 -54 -6 0 -16 -11 -22 -25 -10 -23
-13 -24 -29 -9 -34 31 -36 114 -3 114 8 0 26 -12 39 -26z m-907 -21 c-4 -47
-31 -52 -61 -11 -25 33 -16 48 29 48 35 0 35 -1 32 -37z m945 -55 c-13 -12
-25 -19 -29 -15 -10 10 16 37 34 37 13 0 12 -4 -5 -22z m29 -94 c33 6 34 5 46
-39 16 -60 15 -117 -2 -140 -13 -18 -15 -18 -41 -1 -33 22 -55 72 -55 127 l0
41 -41 -36 c-60 -55 -132 -75 -146 -40 -8 21 28 56 96 93 l54 29 28 -20 c20
-15 36 -19 61 -14z m145 1 c29 -19 57 -44 63 -55 10 -18 8 -20 -20 -20 -42 0
-127 37 -133 58 -3 9 -8 25 -12 35 -13 30 45 21 102 -18z"/>
<path d="M2677 3793 c-13 -12 -7 -33 8 -33 8 0 15 9 15 20 0 20 -11 26 -23 13z"/>
<path d="M2396 3782 c-8 -14 0 -18 52 -27 l44 -7 -7 -70 c-6 -57 -5 -70 6 -66
8 3 18 29 23 61 9 60 16 65 56 42 32 -18 50 -19 50 -2 0 31 -208 95 -224 69z"/>
<path d="M2776 3748 c-9 -12 -16 -32 -16 -43 0 -36 -12 -65 -26 -65 -18 0 -18
-19 0 -26 11 -4 12 -13 5 -37 -14 -51 8 -59 28 -9 9 23 22 42 30 42 17 0 17
17 -1 27 -11 6 -12 18 -6 51 10 59 18 62 49 25 31 -37 41 -41 41 -16 0 23 -49
73 -71 73 -10 0 -25 -10 -33 -22z"/>
<path d="M1586 3721 c-4 -7 -5 -15 -2 -18 9 -9 19 4 14 18 -4 11 -6 11 -12 0z"/>
<path d="M2118 3715 c-35 -20 -47 -74 -24 -110 9 -14 23 -25 31 -25 19 0 55
36 55 55 0 21 17 19 29 -4 12 -21 38 -34 52 -25 6 3 -8 26 -31 50 -22 24 -40
50 -40 59 0 19 -36 19 -72 0z m18 -93 c-13 -14 -16 -12 -22 12 -4 19 -1 33 12
48 l19 20 3 -32 c2 -20 -3 -39 -12 -48z"/>
<path d="M1900 3668 c-11 -18 -20 -44 -20 -57 0 -24 -7 -25 -52 -6 -12 5 -25
-2 -42 -20 -14 -15 -30 -24 -35 -20 -6 3 -11 -2 -11 -14 0 -11 5 -23 10 -26 6
-4 20 -25 31 -48 12 -23 27 -45 33 -49 18 -12 29 9 16 32 -43 80 -25 145 25
90 29 -32 42 -24 49 28 7 55 30 94 51 86 8 -3 26 -30 41 -60 31 -64 44 -75 44
-39 0 34 -34 100 -62 119 -34 24 -56 19 -78 -16z"/>
<path d="M2665 3668 c-11 -43 -10 -81 1 -85 13 -4 24 28 24 75 0 37 -17 43
-25 10z"/>
<path d="M2927 3666 c-8 -8 -23 -36 -33 -60 -16 -39 -23 -46 -46 -46 -33 0
-37 -16 -7 -25 21 -7 21 -7 3 -72 -10 -36 14 -27 33 12 10 21 24 35 35 35 20
0 25 26 6 33 -10 3 -10 12 1 43 21 60 30 67 51 41 24 -29 39 -13 19 21 -18 32
-41 39 -62 18z"/>
<path d="M3040 3555 c0 -8 5 -15 10 -15 6 0 10 7 10 15 0 8 -4 15 -10 15 -5 0
-10 -7 -10 -15z"/>
<path d="M2977 3465 c-38 -52 -46 -75 -24 -75 17 0 69 86 65 107 -3 14 -13 6
-41 -32z"/>
<path d="M1640 3465 c-7 -8 -10 -32 -8 -54 l3 -38 -39 5 c-42 5 -70 -16 -59
-44 4 -12 0 -14 -21 -8 -44 11 -30 -13 29 -51 80 -51 98 -44 50 19 -44 58 -26
72 45 36 46 -24 55 -15 35 34 -15 34 -20 86 -10 86 3 0 28 -12 56 -26 53 -26
71 -26 49 1 -16 19 -83 55 -103 55 -8 0 -20 -7 -27 -15z"/>
<path d="M3047 3412 c-20 -21 -37 -43 -37 -50 0 -17 25 -15 40 3 33 40 67 1
35 -41 -18 -24 -19 -44 -1 -44 17 0 46 59 46 93 0 13 -7 30 -15 37 -8 7 -15
19 -15 26 0 23 -14 16 -53 -24z"/>
<path d="M3166 3337 c-15 -11 -16 -17 -7 -35 18 -34 13 -42 -25 -42 -31 0 -35
-2 -24 -15 32 -38 113 3 90 46 -16 28 -12 32 25 26 20 -3 37 -1 41 5 16 26
-68 39 -100 15z"/>
<path d="M1440 3224 c-23 -26 -16 -72 16 -105 39 -41 68 -36 72 14 3 32 7 37
28 37 37 0 20 17 -43 46 -66 29 -58 28 -73 8z m60 -81 c0 -7 -4 -13 -8 -13
-17 0 -32 25 -32 55 l0 30 20 -30 c11 -16 20 -36 20 -42z"/>
<path d="M1330 3132 c0 -5 25 -44 56 -86 30 -42 54 -80 52 -85 -2 -4 -31 -1
-66 7 -60 15 -86 12 -66 -8 5 -5 40 -17 77 -27 62 -16 68 -16 83 -1 16 15 15
20 -6 60 -39 75 -130 173 -130 140z"/>
<path d="M1642 3070 c0 -14 2 -19 5 -12 2 6 2 18 0 25 -3 6 -5 1 -5 -13z"/>
<path d="M1160 3040 c-16 -16 -20 -31 -18 -63 3 -42 20 -55 26 -20 2 10 13 23
25 28 16 7 22 19 22 40 0 37 -26 44 -55 15z"/>
<path d="M1230 2937 c0 -13 110 -127 123 -127 21 0 1 37 -46 85 -52 54 -77 68
-77 42z"/>
<path d="M1032 2925 c-31 -22 -69 -92 -76 -142 -12 -82 12 -92 88 -38 82 58
176 79 176 39 0 -50 -75 -139 -151 -181 l-34 -18 29 -3 c56 -7 168 100 182
175 10 55 -3 68 -73 68 -52 0 -68 -5 -122 -39 -34 -21 -64 -36 -67 -34 -12 13
30 110 61 139 44 42 35 67 -13 34z"/>
<path d="M4447 1733 c-3 -4 -8 -33 -12 -63 -12 -86 -61 -225 -120 -339 -30
-57 -53 -106 -51 -108 8 -8 95 162 130 252 41 107 83 308 53 258z"/>
<path d="M1732 1640 c-48 -47 -169 -227 -159 -236 3 -3 31 37 63 87 32 51 82
117 111 146 30 29 49 53 45 53 -5 0 -32 -22 -60 -50z"/>
<path d="M2147 3064 c-29 -60 -14 -114 26 -98 24 9 29 38 17 83 -14 54 -23 57
-43 15z"/>
<path d="M1975 2825 c-39 -18 -13 -18 50 0 47 13 48 14 15 14 -19 0 -48 -6
-65 -14z"/>
<path d="M2289 2819 l-24 -20 23 6 c26 8 29 -8 5 -27 -21 -15 -47 -58 -36 -58
5 1 19 7 33 15 38 22 49 18 13 -5 -18 -11 -33 -22 -33 -24 0 -3 24 2 53 11 67
21 195 16 224 -9 17 -14 8 -45 -23 -79 -13 -14 -24 -30 -24 -37 0 -7 -5 -12
-12 -12 -6 0 -8 -3 -4 -7 8 -8 106 92 106 109 0 7 -5 6 -14 -1 -12 -10 -13 -8
-9 8 3 12 11 21 19 21 29 0 0 28 -66 64 -60 32 -78 37 -128 36 -78 -2 -81 -1
-52 15 l25 14 -26 1 c-15 0 -37 -9 -50 -21z m144 -56 c-7 -2 -19 -2 -25 0 -7
3 -2 5 12 5 14 0 19 -2 13 -5z"/>
<path d="M2037 2783 c-4 -6 -28 -13 -54 -16 -41 -4 -54 -11 -89 -51 -22 -25
-45 -46 -52 -46 -7 0 -12 -4 -12 -10 0 -5 5 -10 11 -10 6 0 9 -6 6 -14 -3 -8
3 -22 14 -32 10 -9 19 -22 19 -29 0 -13 42 -35 65 -35 23 0 17 12 -23 45 -20
17 -32 24 -27 16 5 -9 4 -12 -3 -7 -6 4 -8 14 -4 24 20 49 39 63 120 89 75 24
105 43 67 43 -9 0 -19 10 -24 22 -4 12 -11 17 -14 11z m-20 -59 c-3 -3 -12 -4
-19 -1 -8 3 -5 6 6 6 11 1 17 -2 13 -5z"/>
<path d="M2348 2699 c-20 -11 -44 -87 -31 -100 5 -5 33 -13 63 -19 67 -13 86
0 76 52 -12 63 -62 94 -108 67z m22 -33 c0 -3 -4 -8 -10 -11 -5 -3 -10 -1 -10
4 0 6 5 11 10 11 6 0 10 -2 10 -4z"/>
<path d="M2001 2674 c-25 -21 -31 -33 -31 -66 l0 -41 66 6 c83 6 103 22 84 67
-14 34 -45 60 -71 60 -10 0 -31 -12 -48 -26z"/>
<path d="M2410 2514 c0 -13 18 -39 24 -34 2 3 -2 14 -10 24 -8 11 -14 16 -14
10z"/>
<path d="M2210 2495 c0 -8 4 -15 10 -15 5 0 7 7 4 15 -4 8 -8 15 -10 15 -2 0
-4 -7 -4 -15z"/>
<path d="M2005 2479 c-4 -6 -5 -12 -2 -15 2 -3 7 2 10 11 7 17 1 20 -8 4z"/>
<path d="M1963 2465 c-3 -9 -3 -18 -1 -21 3 -3 8 4 11 16 6 23 -1 27 -10 5z"/>
<path d="M2321 2359 c-13 -5 -21 -12 -18 -15 8 -9 67 6 67 17 0 11 -18 11 -49
-2z"/>
<path d="M2165 2320 c3 -5 22 -10 41 -10 19 0 34 5 34 10 0 6 -18 10 -41 10
-24 0 -38 -4 -34 -10z"/>
<path d="M2522 1334 c-34 -17 -52 -32 -52 -44 0 -10 -7 -20 -15 -24 -11 -4
-15 -21 -15 -60 0 -48 3 -57 30 -79 16 -14 43 -28 60 -32 42 -9 125 12 159 41
l28 23 22 -30 c24 -33 75 -59 114 -59 12 0 40 9 61 19 l38 20 24 -29 c35 -40
101 -64 166 -58 42 4 57 11 80 37 33 37 35 55 9 97 -27 45 -101 76 -184 79
-52 2 -73 7 -90 23 -50 46 -139 64 -192 40 -22 -10 -29 -8 -53 15 -56 53 -113
60 -190 21z m170 -18 c19 -14 19 -14 1 -18 -14 -4 -13 -6 9 -12 26 -8 27 -10
21 -55 -8 -62 -17 -78 -61 -100 -76 -38 -165 -33 -195 10 -17 23 -12 108 7
124 7 6 15 18 19 27 12 33 160 51 199 24z m214 -52 c27 -19 34 -21 24 -8 -14
18 -14 18 10 3 14 -9 28 -30 32 -50 8 -38 1 -72 -13 -64 -5 4 -9 -1 -9 -10 0
-17 -71 -54 -103 -55 -33 0 -88 32 -103 61 -12 23 -12 36 -2 74 7 25 18 45 25
45 7 0 13 7 13 15 0 26 81 19 126 -11z m215 -65 c23 -11 38 -16 34 -10 -12 21
15 11 45 -16 71 -65 27 -143 -81 -143 -51 0 -121 32 -143 64 -13 21 -13 26 -1
42 8 11 15 34 15 52 0 31 1 32 45 32 27 0 63 -9 86 -21z"/>
<path d="M2460 1173 c0 -13 29 -38 35 -31 3 3 -4 13 -15 23 -11 10 -20 13 -20
8z"/>
<path d="M2595 1169 c-4 -6 -5 -12 -2 -15 2 -3 7 2 10 11 7 17 1 20 -8 4z"/>
<path d="M2810 1169 c-7 -11 -10 -23 -7 -25 2 -2 9 7 15 21 14 30 7 33 -8 4z"/>
<path d="M2843 1145 c-3 -9 -3 -18 -1 -21 3 -3 8 4 11 16 6 23 -1 27 -10 5z"/>
<path d="M3049 1103 c-13 -16 -12 -17 4 -4 16 13 21 21 13 21 -2 0 -10 -8 -17
-17z"/>
<path d="M2290 1192 c-52 -20 -74 -31 -232 -120 -110 -61 -117 -67 -112 -91 9
-39 32 -70 67 -92 50 -30 152 -59 231 -64 49 -3 62 -2 41 4 l-30 9 27 1 c55 2
148 136 148 213 0 56 -55 159 -84 157 -6 0 -31 -8 -56 -17z m72 -25 c-2 -9 2
-17 8 -17 16 0 40 -63 40 -102 -1 -45 -30 -107 -75 -157 -32 -36 -43 -41 -79
-41 -108 1 -280 69 -292 116 -4 13 -5 26 -3 28 42 32 371 196 389 193 8 -2 14
-10 12 -20z"/>
<path d="M2235 1024 c-35 -28 -119 -64 -150 -64 -16 0 -37 -5 -45 -11 -11 -8
-1 -9 39 -5 58 6 119 32 166 71 32 26 23 35 -10 9z"/>
<path d="M2240 969 c-14 -11 -43 -29 -65 -40 -36 -17 -37 -19 -10 -14 35 7
105 51 105 65 0 13 -1 13 -30 -11z"/>
<path d="M2520 935 c-7 -8 -15 -35 -17 -59 -5 -37 -2 -46 18 -60 14 -9 43 -16
71 -16 37 0 51 -5 60 -20 15 -24 57 -26 97 -5 50 26 54 66 11 114 -28 30 -34
32 -70 26 -31 -5 -47 -2 -74 14 -39 25 -79 27 -96 6z m87 -16 c25 -16 45 -20
72 -16 41 5 71 -6 71 -27 0 -8 7 -16 15 -20 20 -7 19 -35 -2 -58 -22 -24 -78
-23 -110 2 -18 14 -41 20 -73 20 -29 0 -52 6 -60 15 -22 26 9 105 42 105 6 0
26 -10 45 -21z"/>
<path d="M1841 917 c2 -1 15 -11 29 -22 l25 -20 -19 23 c-11 12 -24 22 -29 22
-6 0 -8 -1 -6 -3z"/>
<path d="M2963 855 c0 -8 4 -12 9 -9 5 3 6 10 3 15 -9 13 -12 11 -12 -6z"/>
<path d="M2948 823 c7 -3 16 -2 19 1 4 3 -2 6 -13 5 -11 0 -14 -3 -6 -6z"/>
<path d="M3580 4406 c0 -2 33 -23 73 -46 39 -24 108 -67 152 -97 45 -31 65
-41 45 -23 -32 28 -253 170 -265 170 -3 0 -5 -2 -5 -4z"/>
<path d="M2883 4364 c31 -7 72 -21 90 -30 28 -15 30 -15 19 -1 -17 20 -97 47
-136 46 -23 0 -17 -4 27 -15z"/>
<path d="M706 3579 c-13 -30 -27 -65 -31 -78 -5 -17 -9 -20 -15 -11 -10 17
-17 -4 -30 -96 -5 -39 -12 -79 -16 -88 -3 -9 -2 -22 4 -29 6 -6 12 -23 15 -37
2 -14 5 7 6 47 1 53 10 97 37 174 20 57 43 117 51 132 8 16 12 31 9 34 -3 4
-16 -18 -30 -48z m-49 -131 c-3 -8 -6 -5 -6 6 -1 11 2 17 5 13 3 -3 4 -12 1
-19z"/>
<path d="M1930 226 c0 -6 179 -46 203 -45 12 0 -23 11 -78 24 -102 24 -125 28
-125 21z"/>
<path d="M2200 169 c25 -4 61 -7 80 -7 29 1 26 2 -15 8 -69 11 -126 10 -65 -1z"/>
<path d="M2745 170 l-40 -7 35 -1 c19 0 55 3 80 7 l45 8 -40 0 c-22 0 -58 -3
-80 -7z"/>
<path d="M2413 153 c54 -2 139 -2 190 0 51 1 7 3 -98 3 -104 0 -146 -2 -92 -3z"/>
</g>
</svg>
