<?xml version="1.0" standalone="no"?>
<!DOCTYPE svg PUBLIC "-//W3C//DTD SVG 20010904//EN"
 "http://www.w3.org/TR/2001/REC-SVG-20010904/DTD/svg10.dtd">
<svg version="1.0" xmlns="http://www.w3.org/2000/svg"
 width="1080.000000pt" height="1080.000000pt" viewBox="0 0 1080.000000 1080.000000"
 preserveAspectRatio="xMidYMid meet">
<metadata>
Created by potrace 1.14, written by Peter Selinger 2001-2017
</metadata>
<g transform="translate(0.000000,1080.000000) scale(0.100000,-0.100000)"
fill="#000000" stroke="none">
<path d="M5265 10350 c-132 -10 -216 -18 -295 -30 -36 -5 -103 -14 -150 -20
-88 -12 -142 -21 -245 -45 -33 -7 -107 -24 -165 -36 -58 -12 -109 -26 -115
-31 -5 -4 -19 -8 -30 -8 -12 0 -48 -8 -81 -19 -32 -10 -99 -31 -149 -46 -90
-27 -125 -40 -157 -56 -10 -5 -23 -9 -30 -9 -11 0 -163 -61 -328 -130 -83 -36
-458 -228 -518 -266 -29 -19 -55 -34 -58 -34 -7 0 -347 -225 -365 -241 -8 -8
-53 -43 -99 -78 -113 -86 -240 -192 -320 -265 -125 -115 -368 -366 -445 -458
-43 -51 -87 -104 -99 -118 -27 -33 -69 -87 -131 -169 -27 -36 -64 -79 -83 -96
-19 -17 -36 -42 -37 -56 -2 -14 -16 -45 -32 -70 -66 -98 -123 -189 -150 -239
-47 -87 -67 -123 -89 -160 -42 -70 -143 -276 -194 -400 -13 -30 -27 -59 -32
-64 -4 -6 -8 -16 -8 -23 0 -7 -11 -36 -24 -65 -24 -54 -64 -162 -93 -253 -9
-27 -29 -89 -44 -136 -16 -48 -29 -98 -29 -112 0 -14 -4 -28 -9 -31 -5 -3 -11
-20 -14 -38 -3 -18 -12 -58 -21 -88 -10 -30 -21 -77 -26 -105 -5 -27 -14 -70
-20 -95 -13 -57 -23 -117 -60 -360 -24 -158 -31 -261 -39 -525 -4 -159 -4
-344 1 -410 11 -155 36 -398 48 -455 5 -25 14 -83 20 -130 10 -80 19 -125 40
-210 5 -19 18 -75 29 -125 35 -150 71 -289 81 -310 5 -11 19 -51 30 -90 12
-38 33 -98 46 -133 13 -34 24 -67 24 -72 0 -5 11 -33 24 -62 13 -29 43 -100
66 -158 80 -202 271 -562 391 -737 16 -23 29 -44 29 -47 0 -5 170 -244 203
-286 7 -9 25 -33 42 -55 53 -72 184 -228 289 -344 146 -161 347 -345 635 -579
22 -18 55 -35 73 -38 l33 -6 -25 22 c-14 11 -45 35 -70 52 -53 37 -182 143
-260 213 -103 93 -430 425 -430 437 0 6 8 21 18 32 41 47 123 202 156 297 19
53 58 94 80 86 9 -4 16 -13 16 -20 0 -19 74 -200 104 -253 13 -23 22 -45 19
-48 -6 -6 -78 43 -156 106 -41 32 -64 45 -71 38 -13 -13 22 -50 104 -108 36
-26 67 -49 70 -53 3 -3 31 -23 62 -43 31 -19 59 -40 63 -46 9 -15 35 -12 42 6
3 9 -7 30 -24 52 -64 81 -163 276 -163 324 0 20 5 18 130 -60 36 -22 101 -62
145 -88 44 -27 112 -68 150 -93 39 -24 95 -58 125 -74 30 -16 61 -34 68 -40 7
-6 34 -21 60 -35 97 -52 190 -100 282 -146 52 -27 106 -55 120 -63 14 -7 45
-23 70 -34 121 -54 151 -73 195 -125 26 -30 60 -62 76 -71 16 -10 28 -22 26
-27 -2 -6 -25 -16 -52 -22 -203 -52 -113 -253 109 -242 l68 3 25 -48 c42 -80
129 -126 184 -97 22 12 49 61 49 90 0 29 22 25 72 -16 23 -19 50 -41 58 -48
76 -61 219 -143 265 -152 27 -5 36 -3 41 10 10 25 -54 181 -109 264 -51 79
-55 102 -9 60 66 -61 167 -117 302 -168 47 -17 94 -35 105 -40 56 -22 269 -77
350 -89 44 -7 99 -16 122 -22 106 -23 540 -19 697 7 58 10 40 -7 -72 -67 -115
-62 -156 -90 -199 -138 -44 -48 -59 -85 -45 -116 43 -95 208 -74 349 43 34 29
65 52 68 52 3 0 5 -20 5 -45 0 -24 4 -54 9 -67 5 -13 14 -41 21 -63 26 -88
117 -175 182 -175 32 0 65 25 85 63 13 25 16 58 16 154 -2 137 -7 130 74 89
43 -23 136 -46 182 -46 112 0 131 45 55 129 -26 29 -65 65 -88 80 -64 45 -108
89 -96 96 6 4 53 11 103 15 218 20 417 65 552 125 17 7 41 16 55 20 27 8 181
63 270 97 30 12 87 35 125 53 110 50 123 53 237 53 94 0 106 -2 99 -17 -4 -9
-20 -43 -35 -75 -37 -76 -44 -137 -21 -172 9 -14 19 -23 23 -20 3 4 6 35 7 69
1 34 6 71 12 82 6 11 26 50 44 88 25 53 38 68 58 72 14 3 46 12 71 20 38 12
47 12 59 1 11 -12 10 -16 -8 -25 -26 -15 -27 -37 -1 -53 15 -10 20 -24 20 -55
0 -24 3 -43 8 -43 15 0 30 16 33 35 4 18 13 20 99 23 51 1 100 8 107 14 33 27
-6 88 -75 119 -18 8 -32 17 -32 20 0 4 38 26 85 50 47 23 85 46 85 51 0 4 6 8
13 8 6 0 49 34 95 76 75 69 82 79 82 113 0 36 3 39 43 55 23 9 47 16 53 16 21
0 134 60 202 108 93 64 233 183 337 287 16 17 38 37 48 44 16 13 17 11 11 -25
-13 -82 38 -180 86 -167 28 7 68 57 98 123 42 94 50 105 69 102 10 -2 37 -6
61 -9 38 -4 42 -3 42 16 0 18 -6 21 -42 21 -58 1 -83 24 -92 83 -6 39 -4 47 8
47 8 0 24 -10 35 -22 18 -18 24 -20 46 -10 14 7 35 12 45 12 13 0 22 9 26 25
8 34 -1 41 -30 25 -26 -14 -92 -8 -109 9 -20 20 20 59 80 76 64 19 83 30 83
51 0 18 -18 18 -51 0 -14 -7 -37 -16 -52 -20 -23 -5 -27 -3 -27 17 0 12 19 54
43 92 24 39 57 95 74 125 16 30 39 71 50 90 59 105 99 193 156 340 78 204 104
302 138 527 13 83 9 107 -13 85 -11 -11 -17 -41 -37 -192 -5 -36 -19 -99 -31
-140 -40 -139 -64 -215 -70 -225 -4 -5 -13 -30 -20 -55 -8 -25 -20 -54 -27
-65 -7 -11 -19 -38 -26 -60 -16 -43 -111 -222 -185 -348 -51 -87 -57 -87 -72
9 -10 60 -45 140 -66 148 -28 11 -67 -70 -80 -163 -9 -72 -13 -75 -70 -46 -72
37 -129 31 -173 -16 -40 -43 -24 -149 32 -213 14 -17 24 -33 22 -37 -3 -3 -42
-25 -88 -47 -46 -23 -92 -50 -101 -61 -53 -58 56 -100 183 -70 24 5 46 7 49 4
4 -3 -14 -24 -38 -46 -25 -23 -85 -78 -134 -123 -114 -104 -105 -96 -151 -132
-69 -53 -148 -99 -210 -123 -33 -13 -87 -36 -120 -51 -40 -19 -69 -27 -88 -23
-60 12 -265 -32 -339 -73 l-28 -15 0 35 c0 72 -50 78 -117 14 l-31 -30 -16 54
c-8 30 -24 62 -35 72 -17 16 -22 16 -48 3 -48 -26 -112 -87 -139 -133 -21 -36
-26 -54 -21 -90 4 -38 2 -44 -13 -44 -38 0 -147 -33 -188 -57 -38 -22 -43 -28
-40 -56 2 -26 13 -38 52 -64 l49 -32 -38 -15 c-21 -9 -41 -16 -45 -16 -5 0
-25 -9 -47 -20 -37 -19 -217 -90 -228 -90 -3 0 -24 -9 -48 -19 -117 -53 -392
-131 -522 -148 -16 -2 -60 -9 -98 -15 -37 -6 -70 -9 -73 -5 -3 3 14 20 38 37
107 78 198 195 200 259 3 98 -135 97 -322 -2 -41 -22 -94 -52 -118 -68 -24
-16 -45 -29 -48 -29 -3 0 -3 26 1 58 7 62 -5 109 -30 118 -49 19 -106 -41
-125 -133 -7 -29 -15 -53 -20 -53 -4 0 -26 24 -48 53 -66 88 -140 108 -192 52
-12 -12 -24 -41 -27 -62 -6 -48 20 -155 48 -195 12 -16 20 -31 18 -32 -13 -11
-236 -26 -377 -26 -206 0 -352 17 -562 66 -97 23 -137 34 -291 85 -73 25 -258
119 -303 155 -20 16 -36 36 -36 44 0 8 11 42 25 75 28 69 33 149 10 182 -35
50 -145 56 -252 13 -42 -17 -77 -29 -78 -28 -2 2 -15 27 -30 57 -23 46 -106
139 -156 176 -17 12 -98 52 -119 58 -31 9 -50 -12 -50 -56 0 -40 19 -109 33
-123 4 -4 7 -16 7 -26 0 -16 -5 -18 -37 -12 -21 4 -48 11 -61 15 -13 5 -50 9
-83 9 -50 0 -76 8 -162 47 -143 67 -395 196 -505 259 -52 30 -96 54 -98 54 -3
0 -20 11 -38 25 -18 14 -36 25 -40 25 -3 0 -30 15 -59 34 -28 18 -95 59 -147
89 -52 30 -104 63 -115 72 -19 16 -19 16 10 11 228 -43 260 -44 328 -11 22 10
37 24 37 35 0 38 -229 155 -435 221 -122 40 -128 59 -17 59 81 0 152 -15 215
-46 49 -23 69 -9 42 32 -90 137 -249 234 -385 234 l-57 0 -12 97 c-15 114 -39
164 -104 215 -49 39 -85 56 -110 50 -14 -3 -17 -16 -17 -88 0 -46 -2 -84 -5
-84 -3 0 -20 16 -38 37 -25 27 -39 34 -52 29 -16 -6 -14 -11 17 -44 40 -41 65
-92 98 -202 12 -41 28 -94 36 -118 13 -41 9 -102 -6 -102 -3 0 -5 13 -2 30 3
24 -3 36 -32 65 -51 49 -101 158 -127 276 -17 75 -25 96 -36 92 -12 -5 -13
-17 -8 -61 4 -30 10 -62 14 -71 5 -9 18 -47 30 -86 13 -38 35 -87 50 -110 40
-59 73 -115 68 -115 -15 0 -165 124 -254 210 -158 155 -304 328 -409 487 -52
78 -94 145 -94 148 0 4 -8 19 -19 33 -10 15 -44 77 -76 137 -32 61 -70 134
-86 162 l-27 53 21 65 c23 70 27 70 53 -10 31 -93 139 -259 177 -271 30 -9 39
8 53 103 11 75 11 106 -2 213 -19 159 -30 202 -67 273 l-30 58 30 57 c51 96
83 260 83 418 0 98 -11 143 -38 152 -16 5 -90 -71 -112 -113 -8 -17 -32 -59
-52 -95 -35 -62 -37 -63 -44 -36 -7 29 1 151 17 256 15 96 75 317 125 465 25
72 56 164 69 205 20 65 81 236 128 365 36 100 58 135 84 135 14 0 35 8 47 18
56 43 180 218 224 314 25 55 27 68 9 68 -22 0 -51 -41 -77 -105 -22 -56 -63
-119 -153 -236 -43 -55 -57 -61 -57 -25 0 39 -18 40 -37 2 -33 -69 -48 -41
-78 149 -27 167 -14 355 24 355 5 0 31 16 57 36 l47 36 66 -10 c66 -10 66 -10
99 22 18 17 39 42 45 56 14 28 25 29 107 7 92 -24 133 -46 187 -102 48 -50 52
-56 42 -82 -13 -36 -84 -73 -140 -73 -57 0 -153 48 -215 109 -50 48 -64 53
-64 24 0 -32 129 -133 197 -153 40 -12 145 -10 175 4 23 10 23 -13 2 -74 -16
-43 -26 -80 -43 -165 -5 -22 -16 -65 -24 -95 -9 -31 -21 -96 -27 -145 -6 -50
-15 -110 -20 -135 -21 -93 -40 -362 -40 -551 0 -187 20 -464 40 -539 5 -19 14
-75 20 -125 7 -49 16 -108 22 -130 5 -22 14 -56 18 -75 5 -19 17 -66 26 -105
9 -38 25 -97 35 -130 11 -33 24 -76 30 -95 27 -88 133 -358 164 -420 7 -14 38
-76 70 -138 117 -233 299 -519 430 -673 16 -20 52 -62 80 -95 126 -149 379
-393 530 -509 21 -16 52 -42 69 -56 17 -14 47 -36 66 -49 19 -13 37 -27 40
-30 6 -7 93 -66 198 -134 60 -38 78 -56 94 -92 23 -53 41 -63 69 -39 19 18 20
18 47 -7 15 -14 43 -28 63 -31 19 -3 78 -25 130 -49 52 -25 110 -50 129 -57
44 -16 66 -25 110 -44 122 -53 342 -125 465 -151 39 -8 97 -22 130 -31 73 -19
158 -35 245 -45 36 -4 110 -14 165 -21 109 -15 609 -18 795 -6 98 7 149 11
405 38 106 11 107 11 230 35 82 15 89 17 210 35 39 6 104 18 145 26 41 9 98
19 125 23 28 4 79 14 115 21 63 13 64 14 25 17 -22 2 -71 -1 -110 -7 -38 -7
-99 -16 -135 -22 -36 -6 -81 -15 -101 -20 -20 -5 -47 -9 -61 -9 -13 0 -29 -5
-35 -11 -5 -5 -32 -9 -59 -7 -45 3 -47 4 -19 12 17 4 72 28 122 52 51 24 100
44 110 44 9 0 37 9 62 21 56 26 76 34 121 49 19 7 45 17 57 23 36 17 34 5 -8
-43 -21 -24 -39 -48 -39 -52 0 -28 59 23 126 109 14 17 43 38 64 47 22 8 48
23 59 32 10 9 51 34 91 56 66 36 74 38 106 28 42 -14 53 -7 31 18 -19 21 -22
32 -7 32 10 0 107 63 198 127 29 21 65 45 80 53 69 38 287 226 455 393 232
231 329 349 510 622 67 101 87 132 155 250 32 57 168 335 177 365 4 14 16 45
27 70 38 87 68 167 95 255 8 28 23 75 33 105 10 30 24 80 30 110 7 30 16 68
21 84 5 16 9 40 9 53 0 13 4 31 9 41 12 23 27 106 41 222 6 52 17 133 25 180
30 173 27 637 -4 816 -6 33 -15 105 -21 161 -10 92 -19 140 -51 278 -5 22 -13
60 -18 85 -5 25 -14 61 -20 80 -5 19 -23 80 -39 135 -16 56 -34 110 -40 120
-6 11 -21 49 -33 85 -11 36 -27 74 -33 85 -7 11 -16 33 -20 50 -9 35 -39 102
-112 250 -72 144 -95 185 -197 350 -31 51 -164 244 -191 279 -195 245 -417
472 -647 661 -13 10 -53 41 -89 68 -36 27 -73 55 -82 62 -9 8 -54 39 -100 70
-46 30 -88 60 -95 65 -7 5 -34 22 -60 36 -26 15 -53 30 -58 35 -25 19 -298
160 -355 182 -25 10 -53 22 -62 28 -10 5 -27 9 -38 9 -11 0 -20 5 -20 10 0 6
-6 10 -12 10 -7 0 -35 11 -62 25 -27 14 -55 25 -63 25 -7 0 -32 8 -56 19 -23
10 -62 24 -87 31 -25 7 -54 16 -65 20 -173 65 -592 146 -861 167 -95 7 -103
22 -21 43 29 7 89 32 134 56 l82 43 71 -60 c76 -63 118 -89 147 -89 10 0 36
-7 58 -14 22 -8 83 -16 135 -18 l95 -3 -3 35 c-1 19 -12 50 -24 70 -48 79 -88
152 -88 160 0 4 26 10 58 12 55 4 117 27 174 64 25 17 32 17 105 2 43 -9 96
-22 118 -28 22 -6 51 -14 65 -16 25 -6 46 -13 90 -32 14 -6 50 -21 80 -32 94
-36 213 -99 255 -136 38 -33 39 -35 21 -47 -41 -26 -56 -48 -56 -82 0 -45 57
-110 118 -136 l43 -19 -29 -42 c-50 -73 -51 -129 -2 -178 26 -26 81 -26 139 0
24 11 46 20 50 20 4 0 15 -16 24 -35 17 -36 69 -75 100 -75 10 0 29 12 42 26
22 23 25 37 25 95 0 37 -4 79 -10 93 -15 39 4 33 63 -22 29 -27 131 -115 227
-197 177 -150 586 -549 737 -718 45 -51 90 -101 100 -112 55 -61 56 -58 -39
-51 -178 15 -258 -15 -243 -91 8 -43 48 -82 122 -119 59 -29 96 -40 201 -58
40 -7 75 -15 77 -18 3 -3 1 -29 -5 -58 -13 -69 -13 -225 1 -273 13 -49 63 -97
100 -97 61 0 135 73 164 161 9 27 20 49 23 49 4 0 43 -39 86 -86 72 -77 168
-154 193 -154 15 0 46 -40 70 -90 13 -25 29 -56 37 -70 30 -49 143 -296 156
-340 8 -25 16 -49 18 -54 3 -4 6 -45 8 -90 2 -44 8 -100 14 -123 5 -24 15 -64
22 -90 12 -48 43 -113 81 -167 l20 -28 -56 -49 c-54 -48 -142 -152 -167 -198
-10 -19 -10 -28 1 -47 28 -53 129 -14 256 100 28 25 55 46 60 46 5 0 19 -28
30 -62 26 -78 39 -281 28 -457 l-7 -121 -50 -51 c-51 -52 -138 -214 -138 -256
0 -11 -3 -23 -7 -27 -5 -4 -13 -24 -18 -43 l-10 -36 -60 62 c-88 93 -128 109
-165 69 -32 -35 -23 -138 21 -220 8 -15 6 -18 -18 -18 -87 0 -129 -36 -116
-100 6 -34 71 -88 116 -97 15 -3 29 -9 32 -13 2 -4 -13 -40 -34 -81 -52 -99
-67 -155 -50 -186 13 -24 45 -30 77 -14 70 34 94 50 145 94 32 27 60 47 63 44
3 -3 1 -62 -4 -130 -7 -86 -15 -132 -26 -148 -9 -13 -16 -42 -16 -65 0 -22 -5
-55 -11 -73 -6 -17 -8 -43 -4 -58 l6 -26 15 22 c9 12 18 47 21 79 3 31 14 73
23 92 12 25 19 73 24 165 12 247 24 282 58 174 36 -110 100 -204 160 -235 28
-15 33 -14 64 2 33 18 43 32 63 95 15 47 14 87 -3 151 -20 74 -26 89 -53 121
-29 35 -29 53 -2 68 20 10 61 44 95 77 30 29 65 102 62 129 -5 45 -44 60 -110
44 -29 -7 -72 -24 -95 -38 -46 -25 -53 -19 -30 27 53 102 66 243 32 324 -14
33 -15 64 -10 220 4 104 2 217 -3 266 -6 47 -9 86 -8 88 2 1 21 -11 43 -27 38
-28 116 -71 128 -71 3 0 5 9 5 19 0 12 -11 23 -27 29 -30 11 -51 26 -114 81
-27 23 -43 48 -53 81 -14 46 -13 52 9 107 28 68 74 114 167 164 71 38 137 63
145 55 9 -9 -45 -82 -97 -130 -50 -46 -95 -70 -155 -82 -49 -9 -47 -34 3 -33
20 0 46 4 57 8 11 5 26 6 33 3 13 -4 47 -68 63 -117 6 -18 7 -17 18 9 12 29
12 29 -31 109 -16 28 -15 29 39 80 30 28 61 64 69 79 8 16 21 28 29 28 29 0
31 57 6 165 -5 22 -18 88 -30 146 -12 59 -30 133 -41 165 -11 33 -20 66 -20
75 0 9 -9 45 -20 80 -11 35 -25 82 -31 104 -7 22 -25 78 -41 125 -16 47 -36
107 -44 133 -9 27 -23 63 -33 80 -9 18 -23 52 -31 77 -8 25 -25 66 -37 92 -13
27 -23 51 -23 55 0 3 -18 44 -40 89 -22 46 -40 87 -40 92 0 4 -14 21 -31 38
l-30 29 11 -30 c6 -16 20 -45 30 -65 28 -52 87 -181 95 -210 8 -25 48 -119 66
-152 5 -10 9 -23 9 -28 0 -6 9 -30 20 -52 11 -23 20 -52 20 -64 0 -13 5 -26
10 -29 6 -3 10 -16 10 -29 0 -12 4 -26 8 -31 8 -10 25 -62 63 -195 11 -41 25
-84 29 -95 4 -11 13 -47 20 -80 7 -33 23 -96 35 -140 28 -95 50 -228 42 -249
-3 -8 -31 -19 -64 -26 -62 -13 -156 -63 -213 -113 l-35 -31 -3 25 c-12 104
-63 196 -184 324 -68 73 -148 197 -148 230 0 19 -45 121 -122 276 -58 116 -68
143 -68 189 0 57 -23 110 -106 247 -24 40 -44 79 -44 88 0 12 18 15 104 15
133 0 196 15 244 56 36 32 37 33 22 61 -21 39 -123 72 -280 93 -47 7 -119 17
-160 24 -85 14 -82 7 -60 121 32 167 -18 380 -141 605 -93 170 -149 65 -149
-277 l0 -186 -42 57 c-74 99 -147 184 -177 205 -27 20 -29 20 -45 3 -14 -17
-14 -22 3 -68 37 -98 73 -169 122 -239 27 -39 49 -75 49 -80 0 -10 -71 63
-165 170 -38 44 -175 186 -305 315 -214 215 -287 283 -481 451 -240 208 -309
271 -309 283 0 9 23 15 75 20 123 11 213 50 242 104 16 30 16 35 3 60 -21 37
-61 54 -133 55 l-62 2 -6 57 c-9 87 -50 136 -103 122 -23 -5 -86 -81 -86 -104
0 -28 -20 6 -40 68 -27 83 -60 142 -101 176 -61 52 -107 44 -129 -23 -16 -50
0 -155 37 -240 29 -68 29 -71 -7 -71 -23 0 -48 15 -96 55 -36 31 -90 67 -120
80 -30 14 -79 36 -109 50 -31 14 -61 25 -68 25 -7 0 -17 4 -23 9 -13 12 -219
77 -289 91 -33 6 -67 15 -75 20 -9 4 -42 8 -74 8 -32 0 -86 5 -120 11 -34 6
-99 16 -146 23 l-84 13 -18 50 c-10 28 -22 51 -28 53 -16 6 -12 25 17 88 45
98 68 251 57 373 -5 65 -10 78 -36 104 -41 42 -61 74 -49 81 5 3 15 4 23 1 7
-3 52 -12 98 -21 47 -8 105 -19 130 -24 25 -4 72 -13 105 -19 90 -16 325 -77
435 -113 25 -8 79 -25 120 -38 143 -44 195 -61 220 -74 14 -7 43 -19 65 -26
22 -7 68 -26 103 -41 34 -16 66 -29 70 -29 4 0 66 -29 137 -65 72 -36 132 -65
135 -65 2 0 -23 19 -55 43 -51 37 -143 87 -160 87 -3 0 -38 15 -78 34 -40 18
-84 37 -97 41 -14 4 -47 17 -75 30 -27 12 -68 28 -90 35 -22 7 -58 21 -80 30
-63 28 -260 87 -350 105 -16 4 -39 11 -50 15 -20 9 -134 35 -215 50 -25 4 -85
17 -135 28 -49 11 -129 26 -178 32 -48 7 -89 15 -91 19 -3 4 -49 8 -104 9 -54
1 -114 7 -133 12 -42 13 -628 21 -764 10z m550 -30 c205 -15 349 -31 357 -39
4 -3 -4 -20 -18 -36 -42 -48 -104 -196 -104 -246 0 -11 -5 -30 -11 -41 -11
-20 -12 -19 -47 14 -143 133 -248 180 -286 126 -22 -31 -20 -62 9 -142 26 -71
71 -145 125 -205 17 -19 28 -36 26 -38 -3 -3 -67 0 -143 6 -77 6 -182 11 -235
11 -81 0 -99 -3 -122 -21 -14 -11 -26 -27 -26 -34 0 -17 114 -103 182 -137
138 -68 208 -98 230 -98 13 0 32 -6 41 -12 15 -12 13 -17 -20 -53 -20 -22 -50
-69 -66 -104 -26 -54 -29 -68 -20 -92 6 -16 8 -31 5 -33 -4 -2 -99 -7 -212
-10 -275 -10 -507 -41 -790 -107 -127 -30 -145 -36 -305 -88 -138 -46 -156
-53 -211 -77 -27 -12 -72 -29 -99 -38 -27 -10 -60 -23 -74 -31 -14 -7 -79 -39
-144 -70 -180 -86 -510 -290 -632 -392 -22 -18 -83 -68 -135 -110 -52 -42
-163 -145 -246 -227 -276 -276 -475 -539 -657 -870 -43 -76 -77 -140 -77 -143
0 -2 -17 -39 -38 -81 -21 -42 -51 -111 -67 -152 -15 -41 -31 -79 -35 -85 -4
-5 -13 -31 -21 -57 -7 -27 -19 -48 -25 -48 -6 0 -24 15 -40 34 -30 35 -125 96
-149 96 -22 0 -28 20 -14 46 10 20 18 24 39 19 25 -5 28 -2 43 46 44 134 30
247 -35 303 -21 18 -38 38 -38 44 0 24 -47 10 -100 -29 -63 -47 -122 -115
-156 -179 -13 -24 -27 -47 -32 -52 -6 -6 -21 18 -38 58 -16 37 -36 74 -45 83
-17 16 -24 53 -20 101 2 23 3 24 11 5 5 -11 9 -35 9 -52 1 -18 5 -33 10 -33
12 0 21 88 21 207 0 93 4 115 41 230 66 203 99 295 119 333 10 19 26 58 36 85
9 28 21 53 27 56 5 4 7 14 4 24 -4 9 -11 14 -17 10 -10 -6 -84 -157 -105 -215
-22 -59 -42 -92 -50 -80 -9 15 -39 -26 -52 -75 -17 -61 -32 -143 -38 -215 -8
-91 -12 -118 -23 -149 -6 -14 -13 -49 -16 -78 -3 -29 -10 -62 -16 -73 -10 -19
-13 -19 -40 -5 -33 17 -70 20 -70 5 0 -5 15 -17 32 -26 52 -26 88 -65 88 -95
0 -35 24 -103 50 -139 l20 -28 -26 -21 c-25 -20 -29 -20 -48 -6 -12 8 -28 18
-36 21 -8 3 -27 12 -42 20 -35 19 -38 18 -38 -11 0 -27 -12 -32 -27 -12 -14
18 -37 143 -36 205 0 39 6 61 22 83 13 17 20 33 18 36 -10 10 -42 -7 -56 -29
-19 -31 -25 -140 -11 -213 20 -107 31 -95 -118 -120 -74 -13 -139 -28 -145
-34 -6 -6 -20 -11 -32 -11 -11 0 -29 -7 -39 -15 -11 -8 -23 -15 -28 -15 -11 0
-10 47 2 68 10 17 68 180 77 217 3 11 15 43 28 70 12 28 28 68 35 90 7 22 16
45 20 50 4 6 18 39 32 75 31 77 69 163 108 240 58 114 113 216 131 242 11 14
19 29 19 32 0 6 42 74 112 179 21 32 38 62 38 67 0 6 5 10 10 10 6 0 10 7 10
16 0 9 5 14 11 12 6 -2 12 -39 14 -88 1 -47 8 -98 15 -115 l11 -30 32 35 c18
19 55 55 82 78 90 79 95 84 89 93 -3 5 -15 4 -27 -3 -22 -11 -28 -16 -107 -86
l-45 -40 -2 115 c-4 162 2 171 152 233 130 53 130 53 149 14 21 -45 21 -45
-15 -90 -38 -47 -73 -120 -74 -154 -1 -14 -5 -66 -9 -117 -10 -110 9 -186 55
-227 l28 -25 33 27 c105 86 148 159 175 292 14 70 14 90 3 150 -19 100 -19
100 98 100 197 0 317 45 424 159 63 66 104 133 94 150 -3 5 1 11 9 15 27 10
16 23 -36 39 -94 31 -232 18 -394 -38 -27 -9 -54 -21 -60 -26 -10 -10 -45 -12
-45 -3 0 16 119 160 183 221 136 129 348 255 564 335 76 28 100 33 174 32 80
-1 85 0 85 19 -1 26 63 45 97 29 22 -10 22 -10 2 -17 -58 -20 -85 -36 -85 -53
0 -10 -4 -22 -8 -27 -19 -21 -61 -143 -67 -192 -9 -67 0 -93 29 -93 56 0 211
160 242 250 19 55 34 58 107 21 35 -18 81 -37 103 -42 21 -6 57 -15 79 -21 22
-6 86 -13 143 -15 86 -4 108 -1 130 13 l26 17 -56 51 c-71 65 -176 127 -253
150 -33 10 -64 22 -68 26 -5 4 5 27 22 50 56 78 63 162 15 180 -33 13 -100
-17 -154 -69 -24 -23 -46 -41 -49 -41 -3 0 -38 31 -77 68 -83 80 -148 114
-208 110 l-41 -3 3 -40 c4 -41 16 -71 52 -130 l22 -35 -57 0 c-55 0 -195 -39
-222 -62 -36 -30 3 -37 63 -11 39 16 75 25 173 43 47 8 58 7 92 -13 27 -15 39
-29 39 -44 0 -13 -1 -23 -2 -24 -2 0 -37 -6 -78 -14 -41 -8 -88 -17 -103 -21
-16 -3 -38 -2 -50 4 -26 12 -86 32 -98 32 -19 0 -7 -21 21 -38 23 -14 27 -21
18 -30 -7 -7 -18 -12 -25 -12 -12 0 -43 -13 -218 -93 -232 -106 -396 -230
-532 -404 -45 -57 -51 -56 -72 8 -6 20 -25 51 -42 70 l-29 33 72 74 c90 90
297 277 398 357 41 33 77 62 80 65 6 7 147 111 216 159 74 53 254 171 259 171
3 0 28 15 57 34 52 33 367 206 375 206 2 0 47 20 100 45 52 25 97 45 99 45 2
0 26 9 52 21 56 25 73 32 129 53 44 16 53 11 53 -32 0 -9 16 -43 35 -75 19
-32 35 -61 35 -65 0 -4 -21 -14 -46 -21 -78 -23 -81 -76 -6 -131 l28 -21 -37
-38 c-57 -61 -62 -146 -12 -223 32 -48 66 -61 153 -57 l72 4 19 -55 c54 -155
158 -196 214 -85 35 69 32 67 75 45 52 -26 82 -25 110 5 19 21 22 32 18 79 -2
30 -16 77 -30 106 l-26 52 50 -6 c67 -9 131 2 171 28 26 18 33 29 35 63 3 34
-1 44 -24 62 -15 12 -24 25 -20 29 21 20 573 30 655 11 54 -12 75 1 39 25 -47
31 -210 41 -431 27 -111 -7 -247 -18 -302 -24 -106 -13 -195 -11 -195 4 0 5
16 26 36 46 78 81 91 127 49 168 -20 20 -34 25 -78 25 -30 0 -70 -6 -89 -14
-36 -15 -118 -89 -118 -106 0 -19 -21 -10 -63 28 -51 47 -167 130 -225 162
l-42 24 52 19 c29 10 62 22 73 27 11 5 36 13 55 18 19 6 64 20 100 32 36 12
110 32 165 46 55 13 116 28 135 34 19 5 46 12 59 16 22 6 78 16 191 33 30 5
96 16 145 24 84 14 304 37 540 56 149 12 294 13 450 1z m435 -60 c0 -11 7 -37
16 -58 59 -136 57 -380 -2 -482 -16 -26 -23 -30 -44 -24 -36 10 -111 10 -138
1 -23 -9 -23 -8 -20 60 l3 68 28 -3 29 -4 -26 45 c-29 49 -28 62 12 215 21 78
35 103 89 163 40 44 53 49 53 19z m-410 -211 c34 -22 91 -68 126 -103 l64 -64
0 -96 0 -96 -27 0 c-40 0 -74 21 -124 75 -97 105 -163 245 -144 305 9 30 35
25 105 -21z m-1910 -128 c118 -74 220 -162 220 -189 0 -14 -120 -135 -127
-128 -3 3 3 19 14 36 18 32 18 32 -4 47 -13 9 -23 26 -23 39 0 17 -10 30 -32
43 -46 27 -75 58 -109 116 -53 92 -39 100 61 36z m505 -48 c27 -26 11 -71 -42
-119 -65 -59 -89 -71 -113 -56 -11 7 -36 12 -56 12 -35 0 -36 1 -30 31 19 98
185 189 241 132z m-485 -159 c68 -64 67 -78 -5 -75 -60 3 -145 54 -145 87 0
14 43 32 78 33 14 1 42 -17 72 -45z m1912 -45 c9 -5 38 -9 65 -9 74 0 79 -7
57 -76 -10 -33 -24 -70 -31 -84 -7 -14 -13 -31 -13 -38 0 -16 -97 -8 -179 15
-113 31 -381 177 -381 207 0 11 460 -4 482 -15z m-1597 -13 c17 -13 27 -27 23
-31 -3 -4 -21 7 -39 24 -38 37 -27 41 16 7z m299 -54 c27 -10 55 -27 63 -39
13 -20 12 -23 -24 -47 -28 -19 -50 -26 -86 -26 -59 0 -136 18 -158 36 -22 20
-13 73 15 84 36 15 138 10 190 -8z m-584 -57 c9 -32 25 -56 51 -79 22 -18 39
-36 39 -40 0 -9 -54 -56 -84 -73 -12 -7 -40 -12 -63 -13 -54 0 -108 47 -118
104 -9 48 10 111 40 130 19 13 98 25 116 19 3 -1 12 -23 19 -48z m330 22 c0
-49 -60 -97 -122 -97 l-33 0 35 24 c19 13 49 40 67 60 36 41 53 46 53 13z
m1860 13 c0 -5 -13 -10 -30 -10 -16 0 -30 5 -30 10 0 6 14 10 30 10 17 0 30
-4 30 -10z m117 -32 c-3 -7 -5 -2 -5 12 0 14 2 19 5 13 2 -7 2 -19 0 -25z
m-247 -60 c0 -10 -4 -18 -10 -18 -5 0 -10 15 -10 33 0 24 3 28 10 17 5 -8 10
-23 10 -32z m120 32 c0 -5 -7 -10 -15 -10 -8 0 -15 5 -15 10 0 6 7 10 15 10 8
0 15 -4 15 -10z m130 -29 c0 -10 -7 -21 -15 -25 -9 -3 -12 -12 -9 -21 9 -22
-32 -63 -74 -75 -43 -12 -61 -3 -33 17 12 8 37 39 56 69 36 56 75 74 75 35z
m213 -21 c27 -6 66 -10 88 -10 87 0 21 -50 -86 -64 -46 -7 -54 -5 -79 19 -15
14 -31 23 -36 20 -10 -6 10 -65 22 -65 4 0 8 -6 8 -14 0 -8 -22 9 -50 38 -27
29 -50 60 -50 69 0 36 31 37 183 7z m-2113 -73 c26 -53 35 -94 31 -139 -1 -13
-10 -18 -32 -18 -24 0 -43 12 -85 54 -50 51 -94 114 -94 136 0 6 8 10 18 10 9
0 35 11 57 24 38 23 41 24 59 8 10 -9 31 -43 46 -75z m-1304 58 c27 -14 75
-49 106 -78 l57 -54 -61 -27 c-61 -28 -61 -28 -77 -8 -71 88 -111 142 -111
148 0 4 -7 16 -17 26 -15 17 -14 18 18 18 20 0 57 -11 85 -25z m4517 14 c29
-13 81 -97 102 -164 8 -28 18 -89 21 -137 l7 -88 -42 0 c-22 0 -41 5 -41 10 0
6 5 10 10 10 6 0 10 9 10 19 0 13 -9 21 -29 26 -16 3 -31 14 -34 23 -3 9 -17
49 -31 87 -42 111 -47 225 -11 225 8 0 25 -5 38 -11z m-1593 -41 c24 -40 25
-48 5 -48 -8 0 -15 -4 -15 -9 0 -5 7 -16 15 -25 21 -21 18 -37 -13 -67 -46
-45 -127 -78 -229 -94 -33 -5 -44 -3 -48 7 -8 20 28 100 62 139 69 78 68 78
128 72 l55 -6 0 32 c0 40 15 40 40 -1z m-2526 -6 c12 -20 -22 -99 -63 -144
-40 -44 -45 -48 -54 -31 -5 10 -23 32 -39 50 l-30 31 73 51 c68 48 102 61 113
43z m705 -38 c9 -22 26 -53 39 -68 27 -35 27 -52 3 -108 -22 -52 -43 -72 -68
-64 -24 8 -79 99 -94 157 -12 45 -12 47 21 88 45 55 75 54 99 -5z m2165 -21
c23 -21 60 -54 82 -73 40 -34 114 -139 114 -161 0 -14 -64 -5 -151 21 -35 11
-74 20 -85 20 -37 0 -91 28 -153 80 -77 64 -79 80 -10 80 54 0 77 9 122 46 16
13 31 24 34 24 3 0 24 -17 47 -37z m1566 -83 c12 -30 16 -102 6 -118 -3 -5
-27 -17 -53 -26 -26 -10 -56 -22 -66 -27 -46 -25 -20 77 50 194 2 4 15 7 27 7
17 0 27 -9 36 -30z m-4620 -19 c0 -19 -22 -23 -38 -7 -15 15 -14 16 11 16 15
0 27 -4 27 -9z m219 -92 c84 -28 222 -133 207 -157 -16 -25 -195 3 -318 51
-58 22 -66 33 -48 65 5 9 14 29 19 43 9 26 11 26 58 18 26 -5 63 -14 82 -20z
m-181 -11 c-6 -18 -28 -21 -28 -4 0 9 7 16 16 16 9 0 14 -5 12 -12z m-145 -52
c21 -16 22 -34 0 -77 -44 -90 -146 -209 -180 -209 -14 0 -18 36 -4 44 4 3 14
27 21 53 17 64 31 90 80 151 43 55 54 60 83 38z m4390 3 c13 -6 31 -23 40 -39
22 -37 23 -106 1 -114 -29 -11 -105 -6 -133 9 -33 17 -81 70 -81 90 0 23 30
45 60 45 23 0 33 -7 45 -30 20 -39 38 -29 29 16 -7 37 0 41 39 23z m555 -9
c14 -23 2 -49 -35 -75 -26 -18 -161 -45 -227 -45 -54 0 -55 1 -66 35 -16 48
-10 59 41 74 24 7 53 17 64 21 11 5 63 9 115 9 85 1 97 -1 108 -19z m-2193
-15 c211 -17 294 -29 404 -54 47 -11 113 -25 146 -32 33 -6 69 -15 80 -19 48
-18 163 -50 181 -50 11 0 24 -4 29 -9 6 -5 53 -23 106 -39 132 -42 165 -56
314 -127 72 -34 162 -77 200 -95 39 -18 84 -43 100 -54 17 -12 50 -32 75 -45
58 -31 264 -171 268 -182 2 -5 8 -9 14 -9 5 0 26 -13 46 -30 20 -16 89 -71
152 -122 110 -88 410 -378 479 -463 181 -221 349 -468 461 -680 96 -182 190
-377 190 -395 0 -8 9 -34 21 -59 29 -64 35 -80 49 -131 7 -25 16 -54 21 -65 5
-11 23 -69 40 -130 42 -156 49 -183 59 -245 5 -30 14 -77 20 -105 74 -339 83
-889 21 -1300 -13 -88 -69 -359 -80 -387 -5 -12 -14 -43 -21 -68 -23 -91 -130
-397 -171 -490 -45 -105 -163 -335 -217 -425 -30 -49 -63 -106 -74 -125 -11
-19 -23 -37 -27 -40 -3 -3 -24 -32 -46 -64 -22 -33 -47 -69 -55 -81 -29 -43
-145 -190 -204 -260 -94 -110 -383 -398 -394 -392 -11 7 -29 93 -37 171 -3 32
-17 106 -31 165 -51 218 -44 192 -109 376 -19 55 -51 147 -71 205 -31 93 -105
251 -175 377 -16 28 -40 51 -69 67 -25 14 -59 36 -75 50 -17 14 -39 26 -49 26
-16 0 -13 -5 15 -25 48 -36 59 -53 59 -97 0 -48 -10 -48 -35 0 -42 81 -68 112
-115 136 -26 14 -56 22 -67 20 -19 -5 -42 10 -60 39 -5 7 -29 30 -55 51 -27
21 -48 43 -48 49 0 15 -41 57 -56 57 -6 0 -14 9 -17 19 -3 14 -11 18 -26 14
-23 -6 -26 -14 -11 -29 7 -7 5 -16 -4 -29 -18 -25 -40 -15 -110 53 -51 49 -57
52 -72 38 -23 -24 -34 -19 -34 15 0 33 -19 54 -80 90 -19 11 -43 33 -51 48
-13 22 -26 30 -55 34 -22 2 -66 16 -99 30 -82 36 -144 36 -195 0 -45 -32 -60
-60 -60 -108 0 -32 -2 -35 -30 -35 -36 0 -45 16 -31 53 9 22 8 27 -4 27 -20 0
-19 16 3 48 22 32 42 98 42 138 0 34 -23 113 -41 142 -11 18 -10 27 10 63 21
36 23 49 17 108 -4 41 -17 86 -33 119 -26 52 -27 55 -10 80 53 84 61 113 61
232 1 87 5 122 17 140 24 38 37 80 43 140 4 30 10 80 15 109 5 33 4 68 -2 87
-14 47 -4 61 54 73 78 17 152 64 204 130 25 31 65 71 89 88 l45 32 -3 183 c-2
101 -8 206 -14 233 -6 28 -25 128 -42 223 -41 237 -55 280 -98 317 -49 41
-116 109 -185 188 -38 44 -69 69 -91 75 -54 15 -276 192 -276 220 0 18 -68
112 -81 112 -6 0 0 -18 12 -40 12 -22 21 -42 18 -44 -2 -3 -36 16 -74 40 -97
63 -257 139 -334 158 -36 9 -69 20 -75 25 -6 5 -31 12 -56 16 -25 4 -60 16
-78 27 -31 19 -51 21 -245 22 -234 1 -258 -3 -406 -67 -44 -20 -95 -38 -113
-42 -180 -38 -384 -147 -518 -278 -188 -182 -334 -360 -377 -457 -38 -87 -77
-160 -85 -160 -5 0 -8 -10 -8 -22 -1 -22 -1 -22 -12 -4 -8 15 -8 21 0 24 7 2
11 23 11 50 l-2 47 -8 -40 c-32 -160 -40 -212 -44 -304 -3 -57 -8 -107 -11
-112 -15 -25 -24 12 -24 99 -1 89 -2 95 -15 72 -17 -29 -19 -133 -5 -211 5
-30 12 -126 14 -214 5 -175 13 -242 28 -251 10 -7 8 56 -8 204 -9 79 11 68 47
-28 26 -70 132 -276 166 -325 35 -48 36 -51 37 -150 2 -198 72 -334 179 -350
30 -5 64 -3 87 4 55 16 59 15 80 -34 28 -65 139 -207 157 -201 9 4 46 -25 99
-77 96 -92 202 -170 222 -162 7 2 32 -15 55 -38 40 -41 49 -61 84 -192 5 -17
7 -126 4 -176 -1 -9 -10 -27 -22 -40 -11 -13 -33 -39 -47 -58 -60 -76 -171
-186 -230 -229 -62 -44 -221 -142 -230 -142 -2 0 -32 -14 -66 -30 -59 -29
-186 -60 -247 -60 -16 0 -29 -4 -29 -10 0 -6 38 -10 93 -10 l92 -1 -40 -22
c-43 -23 -89 -64 -239 -214 -84 -83 -157 -180 -230 -303 -14 -25 -32 -54 -39
-64 -68 -107 -89 -158 -49 -119 19 18 113 155 125 183 13 29 52 90 97 152 52
72 204 228 222 228 7 0 22 12 35 26 12 14 27 24 34 22 8 -3 7 -9 -5 -20 -9 -9
-16 -20 -16 -24 0 -4 -22 -28 -48 -53 -39 -37 -65 -80 -130 -213 -45 -92 -82
-170 -82 -173 0 -4 -25 -59 -56 -123 -37 -77 -57 -132 -59 -162 -4 -51 -17
-112 -40 -185 -24 -77 -39 -376 -25 -505 6 -58 18 -129 25 -157 7 -29 9 -55 5
-58 -7 -4 -168 96 -215 132 -5 5 -41 31 -80 58 -38 27 -80 60 -93 72 -13 13
-26 23 -30 23 -4 0 -24 15 -44 33 -20 17 -60 52 -89 77 -50 43 -216 208 -325
322 -120 126 -331 413 -456 621 -49 80 -204 386 -228 447 -7 19 -27 67 -43
105 -17 39 -33 84 -38 100 -4 17 -18 62 -32 100 -13 39 -30 90 -37 115 -7 25
-19 63 -26 85 -7 22 -21 76 -30 120 -9 44 -21 98 -26 120 -19 83 -29 145 -48
320 -11 99 -24 214 -29 255 -21 172 7 662 50 865 34 167 77 350 89 379 4 11
14 41 21 66 22 80 81 254 104 310 74 177 198 425 280 560 31 52 65 109 75 125
42 73 145 211 293 394 132 163 426 444 592 566 22 17 46 36 54 43 19 19 328
222 336 222 4 0 19 9 34 19 55 40 465 241 490 241 4 0 22 7 39 15 46 24 219
84 287 101 33 9 69 19 80 24 19 8 143 38 260 61 28 5 68 14 90 19 44 10 350
48 430 53 133 9 458 4 610 -8z m1726 -251 c4 -57 3 -94 -4 -102 -14 -17 -74
-42 -102 -42 -49 0 -66 61 -35 124 21 44 104 119 125 112 6 -1 13 -43 16 -92z
m141 59 c23 -26 38 -89 38 -165 0 -82 -6 -98 -36 -98 -36 0 -79 63 -77 114 0
23 -5 48 -14 58 -8 9 -13 30 -11 48 2 27 9 35 38 45 47 17 45 17 62 -2z
m-5883 -230 c44 -67 43 -125 -3 -184 -33 -41 -37 -43 -84 -40 -53 3 -71 -8
-97 -58 -7 -15 -30 -34 -52 -43 -38 -15 -144 -48 -156 -48 -8 0 49 80 87 123
l25 28 3 -28 c5 -43 28 -33 50 21 40 102 159 276 188 276 5 0 22 -21 39 -47z
m549 -99 c54 -7 61 -13 39 -36 -7 -7 -23 -29 -35 -49 -34 -57 -127 -138 -187
-165 -89 -39 -280 -67 -313 -45 -7 4 -15 27 -16 51 -3 30 -10 49 -25 62 -28
22 -24 29 44 67 50 28 95 48 200 88 67 26 199 38 293 27z m6859 -331 c68 -137
81 -172 113 -298 23 -90 4 -325 -26 -325 -6 0 -28 7 -47 15 -20 8 -50 15 -66
15 -31 0 -41 14 -41 60 0 16 -4 39 -9 52 -23 61 -33 249 -20 392 12 144 21
186 38 186 6 0 32 -44 58 -97z m-7462 48 c-9 -16 -25 -3 -18 15 4 10 9 12 15
6 6 -6 7 -15 3 -21z m-28 -101 c26 0 33 -5 42 -31 24 -70 5 -215 -39 -294 -45
-82 -132 -177 -143 -158 -3 5 -10 35 -17 68 -24 114 5 294 62 390 16 29 25 35
42 31 12 -3 35 -6 53 -6z m7165 -167 c34 -37 149 -189 183 -243 28 -45 58
-120 51 -128 -11 -11 -59 37 -151 150 -34 42 -131 248 -117 248 5 0 20 -12 34
-27z m-7575 -380 c-3 -10 -5 -4 -5 12 0 17 2 24 5 18 2 -7 2 -21 0 -30z m7592
26 c50 -8 74 -18 96 -40 33 -31 51 -36 58 -16 2 6 8 9 12 5 4 -4 -4 -35 -18
-70 l-25 -63 -47 -3 c-105 -7 -269 51 -325 114 -50 58 -20 82 104 83 44 1 109
-4 145 -10z m256 -79 c-3 -5 -10 -10 -16 -10 -5 0 -9 5 -9 10 0 6 7 10 16 10
8 0 12 -4 9 -10z m-7868 -22 c-3 -8 -6 -5 -6 6 -1 11 2 17 5 13 3 -3 4 -12 1
-19z m8208 -43 c212 -30 335 -61 335 -86 0 -5 -15 -16 -32 -25 -87 -45 -217
-56 -365 -30 -121 22 -136 33 -114 88 5 13 12 35 16 51 4 22 10 26 28 22 12
-2 72 -11 132 -20z m-285 -65 c0 -5 -4 -10 -10 -10 -5 0 -10 5 -10 10 0 6 5
10 10 10 6 0 10 -4 10 -10z m-65 -35 c22 -8 53 -15 68 -15 l28 0 -6 -110 c-5
-123 -26 -188 -73 -233 -40 -38 -73 -43 -99 -15 -51 54 -64 148 -39 287 18
101 39 115 121 86z m222 -137 c94 -134 153 -225 153 -237 0 -23 -21 -9 -88 57
-115 112 -152 161 -152 198 0 37 8 64 21 64 4 0 34 -37 66 -82z m60 54 c30
-19 188 -312 181 -334 -4 -10 -220 305 -226 330 -4 13 26 16 45 4z m-4841 -30
c-3 -5 -23 -14 -45 -22 -23 -7 -41 -17 -41 -22 0 -4 -8 -8 -17 -8 -10 0 -2 11
23 30 35 26 93 42 80 22z m420 -123 c10 -17 -13 -36 -27 -22 -12 12 -4 33 11
33 5 0 12 -5 16 -11z m102 -39 c3 -21 2 -22 -12 -11 -19 16 -21 44 -3 39 6 -3
14 -15 15 -28z m-186 -67 c40 -43 107 -114 149 -158 80 -84 207 -261 195 -272
-4 -4 -21 -1 -39 6 -91 37 -195 38 -264 3 l-38 -20 27 -13 c23 -10 35 -9 73 6
44 16 49 16 103 0 31 -10 73 -29 92 -42 19 -12 40 -23 46 -23 37 0 184 -150
184 -187 0 -10 91 -195 117 -238 10 -16 26 -38 36 -50 10 -11 30 -39 43 -62
14 -23 36 -49 49 -57 14 -9 25 -25 25 -36 0 -11 16 -34 35 -51 43 -39 78 -105
71 -133 -3 -12 -27 -43 -54 -71 -78 -80 -103 -132 -50 -104 27 14 31 7 14 -27
-48 -100 -56 -123 -47 -147 9 -24 53 -43 71 -32 17 10 11 -33 -11 -83 -12 -26
-28 -63 -37 -82 -21 -50 -63 -102 -166 -208 -50 -51 -92 -97 -94 -102 -2 -6
-8 -10 -13 -10 -19 0 -149 -125 -167 -160 -7 -14 -23 -32 -35 -39 -18 -11 -16
-8 6 16 28 31 29 63 0 63 -12 0 -72 -39 -93 -60 -3 -3 -27 -23 -55 -45 -27
-22 -56 -45 -62 -51 -7 -7 -28 -22 -48 -34 -29 -18 -38 -20 -50 -10 -12 10
-15 9 -15 -4 0 -23 -16 -20 -65 14 -24 17 -46 30 -49 30 -4 0 -65 39 -137 88
-73 48 -157 104 -188 124 -31 20 -71 49 -88 63 -18 15 -33 22 -33 16 0 -22
-19 -9 -113 79 -106 100 -176 193 -184 247 -3 19 -12 37 -19 40 -8 3 -14 12
-14 19 0 8 -6 25 -14 37 -21 34 -29 94 -14 104 19 12 38 50 33 65 -3 7 -19 19
-35 26 -16 8 -36 26 -44 40 -37 68 -64 130 -70 160 -4 17 -12 32 -17 32 -24 0
1 63 62 155 30 44 139 254 153 295 3 8 26 47 51 85 24 39 53 88 64 110 23 48
41 65 99 95 51 27 54 47 8 55 l-34 7 34 56 c19 32 34 60 34 64 0 22 108 136
175 186 33 24 80 62 104 83 24 22 49 43 55 47 6 4 44 44 85 90 41 45 78 82 82
82 5 0 41 -35 81 -77z m-3318 10 c34 -34 40 -58 34 -147 -5 -76 -29 -131 -83
-188 -44 -48 -105 -35 -136 28 -14 26 -33 47 -50 55 -16 6 -29 15 -29 20 0 20
77 138 114 175 52 51 95 84 111 84 7 0 24 -12 39 -27z m4524 0 c2 -8 -5 -13
-17 -13 -12 0 -21 6 -21 16 0 18 31 15 38 -3z m-4953 -357 c-5 -32 -3 -54 9
-77 9 -18 16 -36 16 -40 0 -16 -147 -77 -240 -99 -115 -28 -242 -31 -314 -6
-48 17 -76 16 -76 -3 0 -5 8 -11 18 -15 87 -30 117 -36 193 -36 87 0 196 16
213 31 6 5 23 9 38 9 26 0 28 -2 22 -27 -4 -16 -15 -39 -26 -52 -14 -19 -18
-41 -18 -112 0 -79 5 -104 51 -244 l52 -157 -30 -81 c-29 -76 -46 -130 -95
-282 -11 -33 -23 -69 -28 -80 -5 -11 -16 -42 -24 -70 -8 -27 -33 -104 -55
-170 -70 -204 -81 -249 -111 -430 -15 -93 -20 -162 -18 -242 2 -71 -1 -112 -7
-112 -5 1 -29 12 -53 26 -78 46 -174 63 -221 39 -31 -16 -31 -16 -42 11 -11
30 -23 137 -41 388 -22 289 -14 591 23 905 5 47 14 121 19 165 5 44 14 103 19
130 6 28 15 77 21 110 29 163 48 246 81 351 5 17 9 37 9 46 0 26 74 75 146 96
142 42 202 52 316 55 65 2 121 6 124 10 4 4 14 7 21 7 11 0 13 -10 8 -44z
m225 -28 c0 -17 -10 -39 -25 -53 -37 -38 -60 -31 -30 9 8 10 17 39 21 64 6 41
8 44 20 27 8 -10 14 -32 14 -47z m2695 -17 c3 -5 1 -12 -5 -16 -5 -3 -10 1
-10 9 0 18 6 21 15 7z m5893 -462 c69 -81 112 -151 132 -216 17 -56 9 -74 -32
-71 -18 1 -43 -1 -55 -5 -19 -7 -27 1 -67 73 -48 86 -58 115 -75 221 -16 100
-16 105 12 87 12 -8 50 -48 85 -89z m52 -366 c0 -20 -3 -24 -11 -16 -7 7 -9
19 -6 27 10 24 17 19 17 -11z m-37 -38 c15 -13 27 -27 27 -30 0 -3 -19 -24
-42 -46 -52 -51 -133 -105 -170 -113 -52 -12 -33 28 65 137 38 42 74 77 81 77
6 0 23 -12 39 -25z m-6139 -189 c8 -29 2 -30 -29 -3 -16 13 -25 29 -21 35 10
16 43 -6 50 -32z m2055 -113 c-10 -31 -21 -49 -33 -51 -20 -4 -18 12 11 81 24
56 41 32 22 -30z m-2121 -6 c40 -41 42 -45 42 -107 1 -37 6 -72 14 -82 18 -24
61 -39 95 -32 25 5 32 2 45 -24 20 -39 13 -58 -26 -66 -113 -23 -176 29 -212
175 -17 68 -22 179 -8 179 4 0 27 -19 50 -43z m122 -53 c0 -14 -3 -14 -15 -4
-8 7 -15 14 -15 16 0 2 7 4 15 4 8 0 15 -7 15 -16z m8 -65 c38 -37 44 -79 11
-79 -43 0 -59 18 -59 65 0 25 4 45 8 45 5 0 23 -14 40 -31z m2269 -71 c-3 -8
-6 -5 -6 6 -1 11 2 17 5 13 3 -3 4 -12 1 -19z m-426 -235 c6 -21 20 -49 29
-63 18 -25 27 -91 35 -245 4 -62 11 -93 33 -137 28 -57 28 -58 9 -87 -14 -23
-18 -48 -18 -103 0 -63 5 -82 36 -146 37 -74 39 -102 9 -102 -15 0 -15 -2 0
-26 21 -31 17 -63 -9 -78 -29 -16 -35 -27 -35 -63 0 -20 -5 -33 -12 -33 -7 0
-50 32 -95 70 -177 150 -231 305 -211 605 11 172 32 239 94 308 25 28 59 70
76 94 17 24 35 43 39 43 4 0 13 -17 20 -37z m4388 -48 c46 -95 7 -269 -88
-397 -34 -46 -36 -47 -80 -43 -25 2 -52 4 -59 5 -9 0 -10 5 -2 19 5 11 10 37
10 58 1 98 64 262 137 361 31 41 62 40 82 -3z m-4619 -186 c0 -5 -15 -43 -34
-82 -42 -90 -53 -153 -49 -287 4 -115 14 -186 39 -270 24 -79 29 -211 11 -279
-9 -31 -21 -96 -27 -146 -6 -49 -16 -112 -21 -138 -5 -26 -9 -61 -9 -76 0 -16
-8 -39 -18 -51 -17 -21 -27 -23 -99 -22 -110 1 -260 33 -373 79 -52 22 -129
47 -170 57 -84 20 -123 44 -142 84 -10 21 -25 30 -63 39 -42 11 -61 24 -123
89 -82 86 -82 79 6 146 31 23 59 45 62 48 3 3 26 22 53 43 46 38 62 62 32 51
-22 -9 -19 0 18 56 38 58 57 64 57 17 0 -18 7 -59 15 -90 8 -32 15 -76 15 -97
0 -41 17 -90 32 -90 11 0 10 113 -2 185 -6 33 -15 105 -20 160 -14 142 -27
224 -44 273 -8 23 -11 42 -7 42 11 0 103 -48 156 -82 25 -16 60 -27 95 -30 30
-3 49 -3 43 -1 -25 9 -12 23 35 37 106 31 303 151 400 243 7 7 20 13 28 13 8
0 14 4 14 9 0 5 15 26 34 45 33 36 56 46 56 25z m4226 -41 c62 -51 123 -129
130 -165 11 -60 -45 -110 -95 -84 -11 7 -39 36 -62 66 -36 48 -42 63 -46 119
-9 105 7 119 73 64z m-8770 -94 c8 -31 -4 -252 -17 -314 -13 -63 -58 -169 -86
-203 l-23 -29 0 31 c0 49 -16 78 -59 103 -39 23 -40 25 -25 46 8 12 17 41 19
64 6 60 148 328 175 328 5 0 13 -12 16 -26z m9352 -27 c6 -31 -7 -65 -40 -102
-34 -39 -110 -95 -128 -95 -18 0 -110 70 -110 83 1 15 67 63 144 105 69 37
128 41 134 9z m-4857 -230 c-3 -15 -6 -16 -12 -5 -11 16 -12 122 -1 132 8 9
19 -98 13 -127z m4230 101 c22 -7 55 -25 72 -40 l32 -26 -34 -36 c-41 -42 -72
-46 -128 -14 -58 33 -73 49 -73 77 0 45 57 61 131 39z m267 5 c-10 -2 -26 -2
-35 0 -10 3 -2 5 17 5 19 0 27 -2 18 -5z m-87 -41 c-14 -26 -14 -69 -1 -77 6
-3 10 -18 10 -33 l-1 -27 -20 24 c-16 20 -19 32 -13 70 4 24 12 50 18 57 16
17 20 9 7 -14z m236 -48 c30 -25 70 -72 90 -103 36 -55 37 -58 37 -157 1 -103
0 -106 -46 -142 -48 -38 -158 100 -197 245 -10 37 -8 46 19 98 16 31 30 68 30
81 0 13 3 24 6 24 4 0 31 -21 61 -46z m-4010 24 c12 -19 33 -81 33 -98 0 -8
-14 6 -30 32 -30 48 -38 78 -21 78 6 0 13 -6 18 -12z m-5468 -65 c62 -36 80
-56 74 -87 -4 -20 -11 -26 -32 -26 -27 0 -81 -45 -81 -67 0 -42 -99 53 -133
128 -9 20 -26 39 -38 42 -28 7 -16 24 24 36 49 14 137 2 186 -26z m9191 -2 c0
-10 16 -33 35 -50 49 -43 46 -65 -23 -131 -91 -89 -192 -140 -206 -105 -15 40
75 215 129 251 14 9 25 25 25 35 0 12 7 19 20 19 13 0 20 -7 20 -19z m-4343
-53 c-3 -8 -6 -5 -6 6 -1 11 2 17 5 13 3 -3 4 -12 1 -19z m-4968 -125 c76 -78
77 -83 28 -258 -16 -58 -20 -63 -28 -30 -4 17 -14 57 -23 90 -21 86 -56 264
-55 284 0 12 2 11 9 -4 4 -11 35 -48 69 -82z m402 -196 c14 -39 31 -99 38
-133 12 -66 15 -354 4 -354 -35 1 -141 184 -172 296 -14 53 -13 160 3 203 12
33 68 72 91 64 6 -2 22 -36 36 -76z m4693 20 c-21 -12 -39 6 -30 29 6 16 8 15
27 -2 18 -16 18 -19 3 -27z m930 17 c9 -3 14 -10 11 -15 -7 -10 -35 0 -35 12
0 11 3 11 24 3z m71 -4 c3 -5 1 -10 -4 -10 -6 0 -11 5 -11 10 0 6 2 10 4 10 3
0 8 -4 11 -10z m-445 -25 c0 -14 -4 -25 -10 -25 -5 0 -10 11 -10 25 0 14 5 25
10 25 6 0 10 -11 10 -25z m-5483 -49 c17 -9 34 -25 38 -36 10 -31 -17 -130
-43 -154 -12 -11 -27 -38 -32 -58 -6 -21 -16 -38 -23 -38 -20 1 -49 49 -55 92
-5 43 15 201 30 231 9 18 10 18 31 -1 12 -11 36 -27 54 -36z m4997 33 c30 -24
33 -34 9 -44 -19 -7 -53 26 -53 51 0 19 13 17 44 -7z m111 -81 c20 -9 25 -18
25 -49 0 -33 -4 -39 -41 -57 l-41 -20 6 34 c3 19 9 50 12 69 7 40 5 39 39 23z
m1215 -43 c10 -12 10 -15 -4 -15 -9 0 -16 7 -16 15 0 8 2 15 4 15 2 0 9 -7 16
-15z m-2616 -93 c41 -50 44 -62 17 -62 -18 0 -111 47 -111 57 0 10 24 48 34
55 12 8 11 9 60 -50z m2715 1 c12 -14 20 -28 17 -30 -7 -7 -95 40 -90 49 11
18 53 7 73 -19z m-3114 -113 c-3 -5 -10 -10 -16 -10 -5 0 -9 5 -9 10 0 6 7 10
16 10 8 0 12 -4 9 -10z m3035 1 c0 -5 12 -11 28 -14 35 -8 55 -22 51 -36 -3
-7 -14 -5 -34 5 -16 9 -42 23 -57 31 -33 17 -35 23 -8 23 11 0 20 -4 20 -9z
m264 -6 c3 -9 0 -15 -9 -15 -8 0 -15 7 -15 15 0 8 4 15 9 15 5 0 11 -7 15 -15z
m-6604 -24 c0 -6 15 -36 34 -68 18 -32 56 -101 83 -153 99 -188 206 -356 296
-465 145 -176 390 -420 489 -488 26 -18 48 -37 48 -44 0 -6 -15 -22 -32 -34
-18 -13 -51 -40 -73 -60 -22 -21 -51 -47 -65 -59 -55 -48 -77 -111 -43 -124
19 -7 82 -1 161 16 34 7 57 18 64 31 9 17 7 19 -13 14 -60 -15 -159 -28 -176
-24 -14 3 -4 18 54 75 71 69 152 132 171 132 6 0 12 -19 15 -42 3 -24 8 -55
12 -70 6 -23 -14 -67 -45 -98 -23 -23 -100 -205 -100 -236 0 -51 -32 -27 -125
96 -22 29 -45 57 -50 64 -11 12 -143 196 -160 224 -5 9 -15 22 -22 29 -6 7
-26 37 -43 65 -17 29 -45 76 -62 103 -17 28 -50 84 -73 125 -23 41 -53 93 -65
115 -44 77 -170 336 -170 349 0 3 -10 28 -21 54 -63 141 -109 254 -109 268 0
8 -4 22 -9 32 -5 9 -19 41 -30 71 -25 64 -28 103 -7 95 8 -3 23 -1 33 5 23 13
33 14 33 2z m3307 -45 c-27 -25 -37 -42 -37 -64 0 -38 -18 -79 -38 -87 -11 -4
-13 0 -7 22 4 16 9 49 12 74 4 43 8 48 51 72 26 14 49 24 51 21 3 -2 -12 -19
-32 -38z m657 -7 c37 -17 43 -35 17 -44 -11 -3 -35 -33 -52 -66 -18 -32 -36
-59 -41 -59 -10 0 -6 79 7 135 6 28 5 29 -9 11 -13 -16 -18 -17 -31 -6 -18 15
-20 67 -2 73 6 2 28 -4 47 -13 19 -10 48 -24 64 -31z m2354 -30 c-32 -21 -77
4 -64 36 4 13 11 12 41 -7 27 -15 33 -23 23 -29z m172 31 c0 -5 -7 -10 -16
-10 -8 0 -12 5 -9 10 3 6 10 10 16 10 5 0 9 -4 9 -10z m-87 -60 c9 -8 -21 -90
-33 -90 -12 0 -20 28 -20 71 0 37 2 40 23 34 12 -4 26 -11 30 -15z m-2345 -68
c5 -15 -23 -26 -45 -18 -14 6 -14 8 3 21 21 16 36 15 42 -3z m-202 -99 c-10
-10 -19 5 -10 18 6 11 8 11 12 0 2 -7 1 -15 -2 -18z m-670 -20 c-10 -10 -19 5
-10 18 6 11 8 11 12 0 2 -7 1 -15 -2 -18z m-29 -45 c-3 -8 -6 -5 -6 6 -1 11 2
17 5 13 3 -3 4 -12 1 -19z m-20 -50 c-3 -8 -6 -5 -6 6 -1 11 2 17 5 13 3 -3 4
-12 1 -19z m-20 -40 c-3 -8 -6 -5 -6 6 -1 11 2 17 5 13 3 -3 4 -12 1 -19z
m-20 -50 c-3 -7 -5 -2 -5 12 0 14 2 19 5 13 2 -7 2 -19 0 -25z m20 -80 c-3 -8
-6 -5 -6 6 -1 11 2 17 5 13 3 -3 4 -12 1 -19z m2279 -31 c-5 -31 -2 -48 9 -62
14 -19 16 -19 26 -2 16 27 145 21 136 -7 -2 -7 -44 -13 -104 -17 -102 -6 -264
-40 -229 -47 11 -2 36 1 56 8 25 8 94 11 219 9 201 -4 203 -5 195 -68 l-5 -36
15 25 c8 14 15 33 16 43 0 20 31 23 63 5 12 -6 43 -12 68 -13 31 -1 55 -8 74
-23 15 -12 37 -22 47 -22 23 0 90 -34 127 -65 13 -11 67 -63 120 -116 53 -53
146 -137 206 -188 61 -51 129 -109 151 -129 23 -21 52 -45 65 -54 22 -16 23
-19 7 -28 -15 -9 -16 -14 -6 -30 10 -15 10 -22 0 -32 -9 -9 -9 -15 0 -26 26
-30 11 -176 -26 -264 -19 -45 -174 -205 -219 -227 -186 -87 -207 -94 -237 -78
-37 18 -52 40 -34 50 8 5 14 24 14 47 0 30 -6 43 -31 64 -36 30 -34 30 -109
11 -56 -15 -60 -14 -126 11 -55 21 -86 26 -151 26 l-83 -1 -1 47 c-1 26 -1 53
0 60 1 6 -7 12 -18 12 -11 0 -26 6 -34 14 -26 26 -82 56 -105 56 -82 0 -167
-121 -147 -210 5 -23 17 -34 57 -52 30 -14 54 -32 59 -46 13 -33 38 -38 80
-15 l37 20 -5 -36 c-12 -90 67 -171 167 -171 58 0 187 40 240 74 64 41 95 49
134 36 39 -13 46 -25 19 -33 -10 -3 -63 -21 -118 -40 -86 -30 -165 -53 -335
-97 -19 -5 -82 -14 -140 -21 -58 -7 -130 -21 -160 -33 -46 -17 -77 -21 -185
-21 -116 0 -135 2 -178 23 -45 23 -54 41 -19 43 9 0 35 9 57 20 l40 19 -50 -5
c-27 -3 -75 -9 -105 -15 -149 -29 -220 -35 -400 -35 -218 0 -306 7 -430 36
-85 20 -227 62 -265 79 -11 4 -60 23 -109 42 -82 30 -97 40 -172 115 -72 70
-84 79 -89 62 -6 -17 -9 -18 -22 -8 -19 17 -59 96 -68 136 -3 18 -11 35 -16
38 -5 4 -9 53 -9 110 0 92 -2 104 -16 98 -14 -5 -15 -18 -10 -87 19 -225 67
-330 176 -386 20 -10 57 -34 82 -53 63 -48 81 -57 107 -50 13 3 45 -6 85 -26
35 -17 71 -31 80 -31 19 0 22 -20 4 -21 -7 0 -3 -4 10 -9 12 -5 22 -14 22 -20
0 -12 -72 -14 -85 -1 -6 4 -57 20 -114 35 -104 27 -277 83 -296 96 -5 3 -30
12 -55 20 -25 7 -49 17 -54 22 -6 4 -20 8 -33 8 -13 0 -23 4 -23 8 0 4 -22 16
-49 27 -27 10 -59 26 -70 34 -20 15 -20 18 -5 71 9 30 24 74 35 97 10 24 19
45 19 48 0 2 27 51 61 107 39 66 81 122 117 155 47 43 54 54 42 63 -12 8 -11
10 7 10 12 0 34 11 49 25 15 14 33 25 41 25 8 0 34 14 58 30 24 17 49 30 55
30 16 0 90 49 90 60 0 20 -34 9 -133 -40 -55 -28 -102 -48 -105 -45 -3 3 0 5
6 5 7 0 12 6 12 13 0 27 219 192 270 203 34 7 66 24 88 44 10 10 36 23 58 30
21 6 56 23 76 36 48 31 93 33 85 4 -6 -25 -2 -25 31 -1 75 52 357 162 507 196
39 9 97 23 130 31 37 8 124 14 230 15 116 1 156 4 125 9 -25 4 -65 13 -90 20
-63 17 -36 27 90 34 105 6 243 34 173 35 -35 1 -46 10 -34 29 7 11 161 71 185
72 4 0 5 -19 2 -43z m-243 -44 c-7 -2 -21 -2 -30 0 -10 3 -4 5 12 5 17 0 24
-2 18 -5z m-4097 -52 c38 -23 77 -74 93 -121 17 -48 28 -340 13 -340 -6 0 -14
5 -17 10 -3 6 -19 10 -34 10 -31 0 -51 16 -51 42 0 10 -11 64 -25 121 -13 56
-27 146 -31 200 -8 108 -5 113 52 78z m4634 9 c0 -5 -2 -10 -4 -10 -3 0 -8 5
-11 10 -3 6 -1 10 4 10 6 0 11 -4 11 -10z m105 -1 c4 -6 5 -13 2 -15 -7 -8
-57 7 -57 17 0 13 47 11 55 -2z m145 -15 c18 -21 -9 -49 -39 -39 -23 7 -27 25
-9 43 16 16 33 15 48 -4z m387 -80 c-11 -31 -19 -39 -38 -39 -36 0 -35 27 3
77 31 41 34 43 41 23 4 -12 2 -37 -6 -61z m-224 7 c22 -9 43 -38 33 -48 -9 -9
-76 27 -76 41 0 18 9 20 43 7z m-3112 -138 c-6 -26 -14 -75 -18 -108 l-8 -60
-3 75 c-2 46 1 76 8 78 5 2 10 22 10 45 0 30 3 38 11 30 8 -8 8 -24 0 -60z
m-131 16 c-12 -22 -30 -25 -30 -6 0 17 21 38 32 31 4 -3 3 -14 -2 -25z m3435
-10 c4 -11 4 -24 0 -27 -9 -9 -36 28 -29 39 9 15 22 10 29 -12z m-2199 4 c-11
-3 -25 -11 -33 -18 -7 -7 -32 -16 -55 -20 -24 -4 -65 -16 -93 -26 -60 -23 -75
-24 -75 -5 0 16 11 21 85 36 28 6 73 17 100 24 28 8 59 14 70 14 19 0 19 -1 1
-5z m2161 -45 c52 -35 246 -228 238 -236 -4 -5 -34 17 -108 78 -11 8 -51 47
-90 85 -114 112 -124 132 -40 73z m-2527 -83 c0 -28 -6 -35 -45 -55 -25 -13
-72 -49 -105 -79 -80 -76 -100 -92 -100 -81 0 18 102 131 140 155 39 25 51 49
65 130 l7 40 19 -39 c10 -22 19 -54 19 -71z m-133 53 c-3 -8 -6 -5 -6 6 -1 11
2 17 5 13 3 -3 4 -12 1 -19z m5038 -85 c19 -67 17 -195 -4 -216 -6 -6 -11 -26
-11 -43 0 -41 -15 -51 -41 -28 -14 12 -19 30 -19 65 0 26 -5 60 -10 74 -12 31
2 134 27 203 14 37 17 40 28 25 6 -10 20 -46 30 -80z m-7210 -9 c45 -21 88
-51 120 -85 l50 -51 -40 8 c-52 12 -259 12 -308 0 l-38 -8 3 83 3 84 30 6 c50
9 107 -2 180 -37z m7009 -79 c45 -19 62 -46 70 -112 6 -47 5 -53 -12 -53 -10
0 -29 -11 -41 -24 -38 -40 -60 -40 -97 1 -18 20 -42 55 -54 79 -43 94 29 153
134 109z m-7304 -41 c0 -10 -7 -14 -22 -12 -32 5 -35 28 -4 28 17 0 26 -5 26
-16z m6115 -52 c0 -18 -4 -33 -9 -34 -11 -3 -28 51 -20 64 12 19 29 0 29 -30z
m-5860 -55 c22 -8 67 -25 99 -37 112 -41 328 -150 324 -163 -6 -15 -180 -22
-217 -8 -15 5 -53 17 -86 26 -201 57 -252 76 -267 99 -14 20 -8 89 8 107 16
18 36 14 139 -24z m5410 -118 c5 -5 -3 -9 -22 -9 -29 0 -63 28 -63 52 0 8 67
-26 85 -43z m1685 -10 c7 -11 9 -27 6 -34 -13 -34 -174 -79 -261 -73 -78 5
-70 15 56 73 82 38 99 41 130 25 16 -9 19 -7 19 10 0 27 36 27 50 -1z m-7370
-51 c0 -20 -111 -248 -142 -290 -11 -16 -29 -28 -40 -28 -19 0 -20 4 -14 55 3
30 13 74 21 98 18 53 82 170 108 198 l19 20 24 -22 c13 -12 24 -26 24 -31z
m5829 43 c9 -6 10 -10 2 -16 -16 -9 -44 2 -36 15 8 12 16 12 34 1z m-3599 -8
c-1 -10 -21 -35 -42 -52 -26 -20 -24 9 2 37 21 22 40 29 40 15z m3390 -18 c0
-12 -29 -3 -34 10 -4 13 -2 14 14 5 11 -6 20 -13 20 -15z m30 -75 c12 -45 30
-45 30 1 0 17 6 32 14 35 19 7 127 -30 185 -63 l44 -26 -24 -19 c-52 -41 -256
-172 -284 -182 -17 -6 -40 -21 -53 -33 -27 -28 -57 -31 -49 -5 3 9 17 44 30
77 15 37 28 91 32 140 8 106 12 115 40 115 20 0 26 -7 35 -40z m1838 7 c7 -5
10 -18 5 -35 -10 -40 -73 -155 -96 -175 -19 -17 -22 -17 -33 -3 -34 47 -15
200 28 230 18 13 60 6 96 -17z m-3075 -148 c37 -18 107 -100 107 -124 0 -26
-49 -98 -94 -137 -38 -34 -44 -34 -57 -4 -6 13 -31 33 -55 45 -57 29 -70 52
-55 101 14 46 45 86 85 111 36 22 40 23 69 8z m-2593 -124 c0 -25 -2 -45 -5
-45 -2 0 -11 16 -20 34 -18 37 -14 56 11 56 10 0 14 -12 14 -45z m151 -88 c-1
-4 -1 -16 -1 -27 0 -23 -28 -27 -36 -5 -7 17 14 47 28 43 5 -2 9 -7 9 -11z
m2739 -11 c0 -2 -7 -7 -16 -10 -8 -3 -12 -2 -9 4 6 10 25 14 25 6z m-42 -24
c2 -6 16 -7 35 -2 28 6 33 4 34 -13 2 -20 -16 -20 -74 -2 -30 9 -31 -17 -3
-45 24 -24 34 -25 55 -4 13 13 21 14 38 6 27 -13 85 -14 92 -1 4 5 13 9 21 9
11 0 10 -5 -6 -22 -11 -12 -20 -28 -20 -35 0 -7 -7 -13 -16 -13 -10 0 -14 6
-11 15 11 26 -14 27 -36 1 -13 -14 -30 -26 -40 -26 -9 0 -16 -6 -14 -12 1 -7
-4 -12 -12 -10 -7 1 -19 -2 -26 -8 -9 -8 -14 -6 -19 5 -4 10 5 19 31 30 19 8
42 15 49 15 19 0 17 17 -3 24 -9 4 -20 1 -24 -6 -5 -8 -26 -12 -56 -11 -54 2
-87 -15 -77 -41 4 -11 13 -14 28 -10 14 3 27 -1 35 -10 12 -14 9 -16 -17 -16
-17 0 -34 5 -37 10 -3 6 -15 10 -27 10 -13 0 -18 5 -15 14 3 7 0 19 -6 25 -8
8 -7 11 6 11 9 0 17 7 17 15 0 8 -9 15 -20 15 -11 0 -20 7 -20 15 0 8 5 15 10
15 6 0 10 7 10 16 0 10 6 14 15 10 10 -3 15 1 15 13 0 10 2 20 4 22 9 8 80 1
84 -9z m105 -12 c5 -20 37 -29 37 -10 0 6 14 10 30 10 17 0 30 -5 30 -10 0 -7
13 -8 35 -4 23 4 35 2 35 -5 0 -6 -8 -12 -17 -13 -52 -4 -83 -2 -83 6 0 4 -12
5 -26 2 -36 -9 -63 1 -61 24 2 26 13 26 20 0z m-3036 -52 c105 -45 203 -141
242 -236 12 -29 12 -35 -2 -50 -15 -15 -18 -14 -39 5 -35 33 -75 45 -100 30
-16 -9 -22 -9 -25 0 -2 7 -18 28 -34 49 -16 20 -29 38 -29 39 0 1 -11 33 -25
71 -23 64 -31 104 -20 104 2 0 17 -5 32 -12z m3193 -8 c0 -5 -7 -10 -15 -10
-8 0 -15 5 -15 10 0 6 7 10 15 10 8 0 15 -4 15 -10z m1024 -57 c2 -10 6 -43 8
-72 l3 -55 -35 -7 c-32 -7 -58 -29 -80 -68 -7 -13 -12 -14 -34 -2 -14 8 -28
22 -31 32 -9 28 24 89 77 142 49 49 83 60 92 30z m-1154 -3 c0 -5 -4 -10 -10
-10 -5 0 -10 5 -10 10 0 6 5 10 10 10 6 0 10 -4 10 -10z m1322 -46 c9 -8 -15
-67 -38 -93 -18 -19 -25 -21 -43 -12 -25 14 -26 20 -4 51 32 46 70 70 85 54z
m411 0 c22 -4 37 -12 37 -20 0 -27 -121 -126 -230 -189 -70 -41 -146 -66 -191
-63 l-43 3 -11 65 -10 65 30 22 c65 48 161 91 230 102 139 22 140 22 188 15z
m-4877 -92 c5 -5 28 -15 52 -22 48 -15 64 -30 33 -30 -12 0 -21 5 -21 10 0 6
-10 10 -22 10 -22 0 -83 39 -62 40 5 0 14 -4 20 -8z m-26 -47 c41 -13 82 -25
91 -25 8 0 24 -6 34 -14 16 -12 17 -16 6 -30 -20 -24 -62 -19 -115 14 -40 26
-104 80 -94 80 2 0 37 -11 78 -25z m683 9 c26 -9 30 -43 13 -106 -19 -74 -44
-126 -66 -138 -13 -7 -24 -2 -46 21 -46 48 -130 99 -176 107 -26 5 -43 13 -43
21 0 19 88 78 144 96 44 14 136 14 174 -1z m577 -4 c0 -5 -12 -10 -27 -10 -22
0 -25 2 -13 10 20 13 40 13 40 0z m1000 -58 l24 -9 -24 -14 c-42 -22 -366 -18
-630 9 -123 13 -227 25 -229 28 -3 2 103 2 235 -2 239 -6 267 -4 504 35 39 6
49 4 70 -15 14 -13 36 -27 50 -32z m-881 32 c2 -2 -17 -4 -43 -4 -30 0 -45 4
-41 10 6 9 72 4 84 -6z m2905 -9 c-4 -8 -13 -15 -21 -15 -13 0 -13 3 -3 15 7
8 16 15 21 15 5 0 6 -7 3 -15z m-3999 -25 c23 -25 16 -34 -18 -21 -20 8 -30 7
-40 -4 -8 -8 -26 -17 -41 -21 -36 -9 -35 18 2 45 35 26 74 27 97 1z m3890 -45
c0 -39 -2 -41 -55 -67 -63 -31 -102 -34 -154 -13 -65 27 -59 61 17 88 53 19
135 35 167 33 22 -1 25 -5 25 -41z m265 41 c0 -3 -4 -8 -10 -11 -5 -3 -10 -1
-10 4 0 6 5 11 10 11 6 0 10 -2 10 -4z m-4358 -88 c14 -12 20 -28 35 -100 8
-43 -25 -68 -92 -68 -66 0 -119 20 -151 58 -28 32 -30 45 -7 68 46 46 177 71
215 42z m396 -33 c66 -38 147 -121 200 -204 35 -54 95 -191 88 -198 -14 -14
-276 158 -346 227 -52 51 -74 94 -60 120 6 11 11 36 12 55 1 29 5 35 24 35 13
0 50 -16 82 -35z m3755 -16 c-4 -4 -28 -10 -52 -14 -38 -6 -43 -5 -30 6 25 25
63 38 77 26 7 -5 9 -13 5 -18z m410 -25 c74 -46 75 -64 3 -64 -89 0 -136 28
-136 81 0 33 66 25 133 -17z m-2046 -75 c-7 -82 -26 -120 -57 -112 -29 8 -33
18 -25 72 8 62 38 111 66 111 21 0 22 -3 16 -71z m477 55 c22 -22 21 -29 -19
-94 -84 -138 -224 -227 -401 -255 -41 -6 -42 -6 -48 27 -4 18 -10 52 -13 75
-5 40 -3 42 44 77 95 69 206 130 286 157 95 32 129 35 151 13z m-751 -46 c29
-15 74 -64 82 -89 4 -10 11 -19 16 -19 20 0 7 -33 -22 -57 -17 -15 -42 -43
-55 -64 -13 -21 -30 -36 -36 -34 -20 8 -62 86 -74 139 -23 97 22 160 89 124z
m-1995 -33 c22 -48 6 -122 -31 -153 -30 -25 -109 39 -136 110 -7 19 -6 31 5
47 13 18 25 21 83 21 63 0 69 -2 79 -25z m2144 -140 c8 -9 -63 -85 -79 -85
-24 0 -14 27 22 59 36 31 47 36 57 26z m271 -186 c107 -54 267 -184 267 -217
0 -12 -16 -14 -82 -10 -87 6 -215 50 -249 86 -15 16 -59 123 -59 142 0 8 20
13 68 19 7 0 32 -9 55 -20z m-183 -4 c0 -8 -4 -15 -10 -15 -5 0 -7 7 -4 15 4
8 8 15 10 15 2 0 4 -7 4 -15z m-204 -16 c10 -12 31 -27 46 -35 31 -16 144 -19
153 -4 9 15 42 12 48 -4 3 -8 3 -24 0 -35 -3 -12 1 -29 10 -39 25 -28 37 -91
37 -193 0 -84 -3 -100 -23 -130 -18 -26 -30 -34 -50 -32 -40 3 -93 51 -129
118 -28 53 -32 70 -36 162 -6 128 -12 130 -108 36 -74 -73 -123 -103 -200
-123 -42 -11 -55 -10 -86 3 -34 14 -38 20 -38 51 0 29 8 42 51 80 28 25 56 46
61 46 5 0 24 10 41 23 37 26 177 96 193 97 6 0 19 -9 30 -21z"/>
<path d="M5968 8326 c-12 -29 -5 -54 18 -63 22 -8 44 22 44 59 0 23 -4 28 -25
28 -17 0 -29 -8 -37 -24z"/>
<path d="M5344 8315 c-10 -25 17 -42 79 -50 71 -9 125 -24 132 -35 4 -6 -1
-71 -11 -146 -14 -118 -15 -137 -2 -150 11 -12 17 -12 32 -1 13 9 23 47 39
142 11 72 22 131 23 133 1 2 44 -15 95 -38 111 -47 129 -49 129 -16 0 32 -36
57 -147 102 -135 55 -170 64 -270 71 -83 5 -93 4 -99 -12z"/>
<path d="M6241 8288 c-39 -20 -61 -70 -76 -168 -15 -97 -26 -120 -57 -120 -32
0 -34 -31 -4 -55 l27 -21 -12 -73 c-13 -80 -6 -101 29 -82 20 11 30 33 52 118
9 37 14 42 43 45 44 4 48 33 7 56 -29 16 -30 19 -24 67 13 107 29 160 51 163
19 3 58 -35 105 -100 13 -19 20 -21 35 -12 38 24 9 94 -65 153 -47 37 -80 45
-111 29z"/>
<path d="M4760 8190 c-83 -30 -120 -82 -120 -170 0 -138 88 -195 171 -111 24
24 39 48 39 63 0 13 6 32 13 42 13 17 17 14 67 -38 44 -46 59 -56 86 -56 45 0
46 28 2 65 -50 42 -128 146 -128 170 0 48 -54 62 -130 35z m28 -139 c-2 -50
-9 -75 -22 -90 -26 -29 -35 -26 -52 14 -25 60 13 145 64 145 11 0 13 -15 10
-69z"/>
<path d="M3522 8178 c-14 -14 -16 -44 -3 -53 11 -6 31 26 31 49 0 19 -11 21
-28 4z"/>
<path d="M4246 8089 c-33 -40 -66 -113 -66 -150 0 -10 -4 -29 -10 -43 l-9 -25
-43 24 c-82 47 -156 23 -173 -56 -5 -23 -11 -29 -23 -23 -10 3 -27 9 -39 11
-35 8 -29 -31 14 -91 20 -28 56 -87 79 -131 44 -84 61 -102 88 -92 25 10 19
47 -19 130 -26 57 -35 89 -35 129 0 93 32 101 117 28 32 -27 66 -50 75 -50 25
0 38 31 38 89 0 109 41 212 87 219 21 3 77 -53 100 -100 6 -13 28 -58 48 -100
37 -81 60 -97 71 -52 9 33 -9 93 -52 174 -59 110 -103 150 -169 150 -39 0 -47
-5 -79 -41z"/>
<path d="M5962 8098 c-15 -19 -32 -112 -32 -172 0 -58 20 -80 47 -53 20 20 39
180 25 212 -13 28 -24 31 -40 13z"/>
<path d="M6557 8072 c-28 -17 -89 -130 -117 -215 l-12 -39 -44 7 c-51 7 -84 0
-84 -20 0 -15 42 -45 63 -45 32 0 37 -25 17 -81 -20 -55 -27 -129 -11 -129 16
0 59 50 71 83 26 73 34 82 66 79 18 -2 36 3 43 12 11 13 8 20 -19 45 l-33 29
16 50 c25 75 70 157 87 157 8 0 24 -14 35 -32 22 -35 61 -44 72 -16 9 23 -32
96 -66 116 -36 21 -49 21 -84 -1z"/>
<path d="M6800 7825 c-18 -21 -5 -47 22 -43 31 4 40 58 10 58 -11 0 -25 -7
-32 -15z"/>
<path d="M3840 7690 c0 -5 6 -10 14 -10 8 0 18 5 21 10 3 6 -3 10 -14 10 -12
0 -21 -4 -21 -10z"/>
<path d="M6719 7688 c-34 -29 -149 -203 -149 -227 1 -66 59 -41 110 48 8 15
30 50 48 78 44 69 38 139 -9 101z"/>
<path d="M3647 7616 c-27 -21 -37 -73 -30 -150 l6 -69 -24 7 c-40 12 -116 19
-143 12 -35 -9 -59 -57 -50 -101 l6 -34 -51 6 c-48 5 -51 4 -51 -16 0 -14 11
-28 30 -39 17 -9 72 -46 121 -80 71 -50 96 -62 115 -58 29 8 32 43 6 72 -43
47 -93 124 -98 153 -6 29 -5 31 24 31 34 0 110 -30 152 -60 16 -11 40 -20 54
-20 40 0 43 36 8 106 -48 95 -54 184 -13 184 25 0 81 -24 139 -59 59 -37 95
-43 100 -18 14 69 -240 182 -301 133z"/>
<path d="M6817 7488 c-56 -61 -77 -90 -77 -110 0 -42 38 -41 87 3 36 31 74 45
99 35 21 -8 12 -53 -27 -129 -48 -93 -26 -139 34 -74 46 48 84 162 71 214 -7
28 -17 42 -41 53 -26 12 -32 22 -35 50 -2 22 -9 36 -18 38 -9 1 -49 -34 -93
-80z"/>
<path d="M7122 7339 c-27 -7 -48 -19 -59 -36 -16 -24 -15 -27 10 -76 36 -72
26 -87 -58 -87 -35 0 -67 -4 -70 -10 -3 -5 5 -21 19 -35 21 -21 34 -25 84 -25
51 0 63 4 85 26 34 34 43 81 23 127 -14 34 -14 38 3 47 12 6 39 6 77 0 69 -11
94 2 75 38 -16 30 -118 47 -189 31z"/>
<path d="M3223 7100 c-13 -5 -32 -24 -42 -41 -57 -93 -24 -206 77 -270 57 -36
85 -37 119 -3 22 22 25 32 21 77 -3 29 -7 58 -9 66 -3 11 7 14 47 12 106 -5
76 40 -63 93 -53 21 -103 46 -112 56 -12 14 -21 16 -38 10z m83 -170 c41 -95
22 -119 -40 -50 -30 33 -36 48 -36 83 0 24 3 47 7 51 10 10 50 -39 69 -84z"/>
<path d="M2940 6870 c0 -19 48 -106 86 -156 156 -204 190 -264 149 -264 -29 0
-121 22 -155 37 -19 9 -56 18 -82 21 -38 4 -49 1 -54 -13 -12 -31 37 -56 181
-95 136 -36 205 -20 205 48 0 80 -211 369 -308 421 -15 8 -22 8 -22 1z"/>
<path d="M2595 6674 c-47 -24 -62 -42 -79 -94 -22 -67 -20 -116 5 -151 28 -40
43 -32 49 27 5 48 6 49 41 52 46 4 79 38 86 89 9 66 -45 107 -102 77z"/>
<path d="M2727 6433 c-17 -17 -3 -46 51 -100 31 -32 87 -91 124 -132 75 -80
104 -90 102 -33 -2 25 -19 50 -83 119 -116 125 -173 168 -194 146z"/>
<path d="M2269 6381 c-99 -63 -179 -235 -179 -387 0 -45 4 -59 24 -79 32 -32
65 -23 154 45 83 63 230 136 306 152 48 10 62 10 84 -3 101 -56 -69 -319 -273
-422 -27 -13 -59 -34 -69 -46 -53 -58 70 -45 167 18 71 46 169 143 210 207 31
50 67 156 67 198 0 71 -65 126 -148 126 -85 0 -248 -70 -363 -154 -41 -31 -78
-56 -83 -56 -14 0 0 99 23 165 29 81 76 149 134 191 85 61 35 102 -54 45z"/>
<path d="M4812 6758 c-26 -32 -72 -154 -72 -190 0 -32 6 -46 31 -69 37 -35 59
-36 94 -6 37 31 42 86 16 170 -32 104 -46 123 -69 95z"/>
<path d="M4495 6195 c-33 -7 -69 -16 -80 -20 -55 -20 -85 -37 -80 -46 12 -18
69 -8 152 28 17 7 52 13 77 13 25 0 46 4 46 8 0 7 -47 34 -53 31 -1 -1 -29 -7
-62 -14z"/>
<path d="M5172 6191 c-18 -3 -48 -19 -67 -34 -50 -40 -46 -76 5 -45 15 10 22
10 31 1 14 -14 -25 -68 -56 -77 -23 -7 -67 -93 -53 -102 10 -6 28 1 99 37 20
11 45 19 55 19 16 0 16 -3 -6 -20 -14 -11 -39 -26 -56 -35 -35 -16 -63 -45
-45 -45 6 0 52 13 103 29 123 39 135 40 236 29 48 -5 120 -10 160 -11 69 -3
74 -5 109 -39 34 -34 35 -37 20 -59 -9 -12 -14 -32 -11 -44 4 -16 -8 -33 -50
-72 -34 -30 -56 -59 -56 -72 0 -11 -11 -28 -26 -37 -17 -12 -22 -20 -15 -27 7
-7 26 5 58 37 26 26 61 59 77 74 43 41 98 132 91 151 -6 14 -8 14 -21 -3 -11
-16 -14 -17 -14 -4 0 32 12 48 36 48 51 0 19 71 -45 100 -25 11 -77 39 -116
61 -131 75 -145 79 -274 79 -64 0 -121 -4 -127 -10 -5 -5 -15 -6 -23 0 -12 7
-12 11 2 24 8 9 24 16 34 16 10 0 25 4 33 10 11 7 9 11 -13 19 -16 6 -31 10
-35 10 -4 -1 -22 -4 -40 -8z m263 -161 c14 -6 4 -9 -38 -9 -36 -1 -56 3 -52 9
7 12 62 12 90 0z"/>
<path d="M4535 6053 c-14 -14 -31 -17 -70 -15 -114 8 -235 -59 -287 -158 -27
-53 -37 -62 -61 -56 -48 12 -62 -22 -25 -61 17 -18 19 -26 10 -35 -19 -19 -14
-32 17 -49 17 -10 35 -35 47 -62 17 -41 26 -50 75 -72 68 -30 119 -33 118 -7
0 17 -129 119 -129 102 0 -18 -29 -10 -41 11 -9 19 -8 20 9 14 19 -5 20 -2 18
39 -3 42 -1 48 45 91 26 25 52 45 58 45 6 0 19 4 29 9 9 5 40 16 67 24 69 22
225 76 236 83 18 11 -12 44 -40 44 -35 0 -52 19 -44 48 7 26 -7 28 -32 5z"/>
<path d="M5255 5884 c-53 -28 -82 -80 -90 -164 l-7 -76 64 -21 c34 -12 98 -24
140 -28 69 -6 78 -5 97 14 16 16 21 34 21 74 0 75 -15 119 -58 167 -33 37 -43
43 -87 46 -32 3 -61 -2 -80 -12z m15 -89 c0 -8 -4 -15 -10 -15 -5 0 -10 7 -10
15 0 8 5 15 10 15 6 0 10 -7 10 -15z m176 -162 c-10 -10 -19 5 -10 18 6 11 8
11 12 0 2 -7 1 -15 -2 -18z"/>
<path d="M4446 5818 c-45 -45 -55 -60 -60 -101 -7 -48 -1 -103 15 -122 8 -11
87 -11 207 0 62 6 76 11 102 37 39 39 39 79 1 140 -46 72 -87 98 -155 98 -55
0 -58 -2 -110 -52z m201 -90 c-3 -7 -5 -2 -5 12 0 14 2 19 5 13 2 -7 2 -19 0
-25z"/>
<path d="M5370 5467 c0 -21 32 -76 48 -82 17 -6 14 24 -7 59 -19 33 -41 45
-41 23z"/>
<path d="M4915 5441 c-5 -24 -2 -37 11 -52 9 -10 21 -19 26 -19 15 0 8 58 -11
81 l-19 23 -7 -33z"/>
<path d="M4466 5403 c-9 -10 -7 -73 3 -73 18 0 29 64 12 74 -4 3 -11 3 -15 -1z"/>
<path d="M4374 5356 c-15 -17 -24 -45 -16 -50 16 -10 33 12 30 37 -2 18 -6 22
-14 13z"/>
<path d="M4525 5338 c-9 -22 4 -43 17 -30 7 7 7 16 0 29 -10 17 -11 17 -17 1z"/>
<path d="M5200 5116 c-70 -23 -82 -46 -22 -45 52 0 106 21 110 42 4 20 -32 22
-88 3z"/>
<path d="M4804 5041 c-2 -2 3 -13 13 -23 13 -14 31 -18 94 -18 74 0 103 11 83
30 -9 8 -182 18 -190 11z"/>
<path d="M5679 2822 c-36 -15 -88 -41 -116 -59 -42 -26 -50 -35 -46 -55 3 -17
-5 -33 -30 -59 -55 -57 -69 -151 -35 -244 14 -38 87 -115 108 -115 9 0 20 -3
24 -7 11 -11 97 -32 133 -33 36 0 118 17 145 31 10 5 26 9 36 9 21 0 105 51
144 87 31 29 41 25 67 -25 59 -115 212 -170 354 -127 52 16 107 45 107 57 0
16 41 8 47 -9 9 -23 93 -113 106 -113 5 0 21 -9 37 -20 64 -46 246 -65 341
-37 77 24 150 93 169 162 11 39 11 51 0 69 -7 11 -18 30 -24 41 -25 43 -89
103 -144 132 -37 20 -97 39 -168 54 -157 32 -177 33 -213 15 -34 -18 -22 -24
-133 75 -10 9 -62 33 -116 55 -83 33 -108 39 -172 39 -64 -1 -83 -5 -128 -30
l-52 -30 -48 52 c-66 74 -141 107 -247 110 -67 2 -90 -2 -146 -25z m315 -53
c29 -13 42 -39 21 -39 -34 0 -12 -33 35 -53 55 -23 57 -30 35 -92 -8 -22 -14
-64 -15 -92 0 -46 -5 -58 -34 -91 -19 -21 -69 -56 -112 -77 -77 -39 -78 -39
-194 -40 -129 0 -148 6 -212 64 -24 22 -38 43 -38 59 0 24 1 24 40 -12 44 -39
74 -50 39 -13 -48 49 -79 110 -79 154 0 55 24 113 49 120 12 3 22 17 26 33 10
46 94 79 225 90 100 9 179 4 214 -11z m446 -94 c19 -10 51 -31 70 -46 39 -32
63 -38 53 -13 -5 13 -3 14 13 6 10 -6 30 -22 43 -36 19 -20 22 -31 17 -60 -6
-29 -3 -38 18 -58 l26 -23 -25 -42 c-19 -32 -30 -40 -45 -36 -17 4 -20 0 -20
-24 0 -25 -9 -34 -67 -68 -66 -39 -70 -40 -163 -40 -91 1 -97 2 -141 33 -51
35 -88 80 -108 129 -13 32 -10 52 20 131 5 13 9 40 9 62 0 36 2 39 32 42 25 2
34 9 38 28 4 17 15 27 35 32 50 12 158 2 195 -17z m532 -172 c77 -38 79 -38
72 -18 -17 43 93 -19 144 -81 27 -32 30 -41 18 -48 -12 -8 -10 -13 9 -27 16
-13 22 -28 20 -51 -3 -70 -29 -102 -115 -142 -46 -21 -70 -26 -141 -26 -56 0
-100 6 -125 16 -123 49 -167 80 -204 140 -26 41 -25 55 4 89 27 31 49 100 45
136 -2 13 -1 29 3 34 3 6 50 10 105 10 90 0 103 -3 165 -32z"/>
<path d="M5722 2460 c0 -14 2 -19 5 -12 2 6 2 18 0 25 -3 6 -5 1 -5 -13z"/>
<path d="M5806 2441 c-4 -7 -5 -15 -2 -18 9 -9 19 4 14 18 -4 11 -6 11 -12 0z"/>
<path d="M6300 2447 c0 -9 -4 -17 -9 -17 -11 0 -36 -59 -27 -67 3 -3 6 1 6 10
0 10 3 17 8 17 10 0 36 60 28 67 -3 4 -6 -1 -6 -10z"/>
<path d="M6360 2369 c0 -11 5 -17 10 -14 6 3 10 13 10 21 0 8 -4 14 -10 14 -5
0 -10 -9 -10 -21z"/>
<path d="M6835 2300 c-3 -5 -1 -10 4 -10 6 0 11 5 11 10 0 6 -2 10 -4 10 -3 0
-8 -4 -11 -10z"/>
<path d="M5125 2483 c-88 -28 -304 -137 -500 -251 -33 -19 -82 -47 -110 -62
-203 -112 -200 -109 -185 -175 27 -122 106 -193 305 -275 11 -5 31 -11 45 -13
14 -3 50 -13 80 -22 117 -36 340 -57 376 -37 16 10 13 12 -21 12 -22 1 -49 5
-60 10 -17 7 -16 9 10 9 61 2 109 23 148 65 141 150 230 340 214 456 -7 57
-92 228 -135 273 -43 44 -58 45 -167 10z m136 -13 c20 -11 27 -40 9 -40 -20 0
-9 -24 34 -69 36 -40 46 -59 60 -122 15 -68 15 -82 1 -147 -26 -124 -70 -202
-180 -315 l-66 -69 -117 5 c-132 6 -189 15 -281 46 -35 11 -71 21 -81 21 -9 0
-28 8 -41 18 -13 10 -59 35 -101 55 -81 39 -109 68 -126 129 -11 42 -11 42 59
81 78 42 92 51 113 70 11 9 26 17 33 17 19 0 193 92 193 102 0 4 6 8 13 8 11
0 50 18 127 59 34 18 198 91 205 91 3 0 16 10 30 22 24 21 70 45 88 47 5 1 17
-4 28 -9z"/>
<path d="M5005 2113 c-16 -9 -43 -26 -60 -39 -44 -32 -126 -79 -155 -88 -75
-22 -102 -28 -174 -36 -43 -5 -81 -12 -84 -15 -15 -15 25 -21 101 -18 101 5
210 45 312 115 105 71 147 128 60 81z"/>
<path d="M5030 2003 c-14 -9 -39 -29 -57 -44 -18 -15 -65 -44 -105 -63 -102
-49 -113 -59 -60 -52 63 9 164 62 212 111 46 47 52 77 10 48z"/>
<path d="M5660 1918 c-51 -26 -65 -50 -78 -129 -12 -80 4 -137 47 -166 29 -20
47 -23 123 -23 101 0 140 -13 181 -59 24 -28 33 -31 83 -31 79 0 133 18 176
58 66 62 58 133 -26 227 l-54 60 -113 0 c-113 0 -114 0 -154 32 -22 18 -60 37
-85 42 -58 13 -49 14 -100 -11z m128 -35 c15 -10 29 -20 32 -24 3 -3 23 -16
46 -28 43 -24 46 -24 185 -5 43 5 48 4 67 -23 11 -16 24 -41 27 -56 5 -17 16
-29 31 -33 46 -12 40 -86 -9 -132 -24 -22 -86 -42 -132 -42 -30 0 -80 25 -116
59 -30 28 -88 41 -183 41 -73 0 -89 3 -106 20 -28 28 -28 113 0 158 11 18 20
39 20 47 0 35 91 47 138 18z"/>
<path d="M4164 1804 c15 -14 31 -22 35 -19 7 7 -39 45 -54 44 -5 0 3 -11 19
-25z"/>
<path d="M7980 9736 c0 -2 7 -7 16 -10 8 -3 12 -2 9 4 -6 10 -25 14 -25 6z"/>
<path d="M8020 9717 c0 -3 22 -16 48 -30 80 -42 116 -63 206 -121 48 -31 89
-56 91 -56 2 0 53 -34 112 -75 239 -166 281 -197 327 -240 12 -11 37 -32 56
-46 19 -15 44 -35 55 -45 11 -11 43 -39 70 -63 59 -51 254 -243 305 -298 19
-21 67 -74 105 -117 39 -44 77 -87 85 -96 40 -43 79 -91 123 -150 27 -36 51
-67 53 -69 2 -2 4 5 4 16 0 19 -86 146 -113 168 -7 6 -19 20 -28 31 -43 64
-314 346 -469 490 -76 70 -188 164 -254 214 -26 19 -86 66 -134 104 -48 38
-112 86 -142 105 -30 20 -71 47 -90 61 -19 14 -44 31 -55 37 -175 107 -237
142 -275 155 -25 9 -53 19 -62 23 -10 4 -18 5 -18 2z"/>
<path d="M6356 9669 c-25 -15 -4 -29 45 -29 20 0 62 -9 95 -21 32 -11 68 -23
79 -26 11 -4 43 -19 72 -34 29 -15 55 -24 58 -18 6 9 -41 59 -57 59 -4 0 -27
8 -51 19 -61 27 -97 39 -142 46 -22 3 -49 8 -60 11 -11 2 -28 -1 -39 -7z"/>
<path d="M10656 4680 c-3 -14 -8 -52 -10 -85 -8 -105 -55 -372 -87 -500 -11
-44 -25 -100 -31 -125 -5 -25 -14 -56 -18 -70 -4 -14 -18 -59 -30 -100 -24
-80 -88 -282 -100 -315 -4 -11 -13 -33 -19 -49 -15 -37 -10 -42 16 -13 20 20
54 105 90 222 8 28 19 59 23 70 5 11 11 31 15 45 79 305 77 297 134 578 26
129 43 315 32 345 l-9 22 -6 -25z"/>
<path d="M9578 2059 c-9 -13 -28 -37 -43 -54 -14 -16 -47 -54 -73 -84 -69 -80
-191 -208 -323 -340 -124 -124 -132 -131 -311 -278 -65 -53 -116 -98 -115
-100 7 -7 58 14 88 37 142 107 561 507 634 606 16 21 41 51 55 65 34 35 82 97
98 126 18 33 10 51 -10 22z"/>
<path d="M3210 715 c13 -14 27 -25 31 -25 3 0 33 -16 65 -35 33 -20 70 -38 84
-42 14 -3 31 -10 38 -16 33 -26 250 -114 402 -163 41 -13 84 -28 95 -33 51
-23 85 -32 107 -28 21 4 20 5 -9 12 -18 4 -33 11 -33 16 0 5 -11 9 -24 9 -14
0 -28 5 -31 10 -3 6 -16 10 -29 10 -12 0 -54 16 -93 35 -39 19 -76 35 -82 35
-6 0 -40 14 -76 30 -36 17 -68 30 -71 30 -5 0 -98 43 -209 96 -38 19 -73 34
-78 34 -4 0 -25 11 -47 25 -22 14 -45 25 -52 25 -6 0 -1 -11 12 -25z"/>
<path d="M7399 475 c-3 -2 -45 -18 -95 -35 -49 -17 -98 -35 -109 -40 -11 -4
-40 -13 -65 -20 -72 -20 -101 -29 -167 -50 -34 -11 -69 -20 -77 -20 -14 0
-107 -26 -141 -40 -11 -5 -36 -11 -55 -14 -19 -3 -62 -10 -95 -16 -33 -6 -83
-14 -110 -18 -28 -4 -56 -11 -63 -16 -15 -9 -144 -25 -257 -33 -44 -3 -84 -9
-90 -14 -17 -16 53 -14 215 7 63 8 145 19 182 23 37 5 71 12 77 16 11 6 64 17
166 35 28 4 66 13 85 18 19 5 87 24 150 41 63 18 119 36 125 40 5 5 24 11 40
14 46 8 148 37 159 46 6 4 36 15 66 25 31 9 61 25 68 36 11 17 4 28 -9 15z"/>
<path d="M4060 360 c0 -5 9 -10 20 -10 12 0 33 -6 48 -14 15 -7 59 -21 97 -30
39 -9 104 -26 145 -37 41 -12 98 -25 125 -30 106 -19 141 -27 165 -36 14 -6
61 -13 105 -16 79 -6 79 -6 45 9 -19 9 -57 20 -85 25 -191 34 -216 40 -355 73
-120 29 -163 40 -238 61 -63 18 -72 18 -72 5z"/>
</g>
</svg>
